<?xml version="1.0" encoding="utf-8"?>

<!DOCTYPE svg PUBLIC "-//W3C//DTD SVG 1.1//EN" "http://www.w3.org/Graphics/SVG/1.1/DTD/svg11.dtd">
<svg version="1.1" id="Layer_1" xmlns="http://www.w3.org/2000/svg" xmlns:xlink="http://www.w3.org/1999/xlink" x="0px" y="0px"
	 viewBox="0 0 2678.083 1529.816" enable-background="new 0 0 2678.083 1529.816" xml:space="preserve">
<g>
	<path fill="#DB123B" stroke="#003691" stroke-width="25" stroke-miterlimit="10" d="M2598.265,952.966
		c1.129-0.188,2.613,2.939,3.886,4.065c1.245,1.103,3.312,1.066,4.577,2.335c2.544,2.554,15.886,4.944,11.398,11.157
		c-1.912,2.647-6.104,2.432-7.254,4.238c-2.304,3.616,1.047,4.675,2.332,7.698l2.261,4.41l-2.332,5.882
		c-1.299,3.221-1.052,7.717-3.541,10.205c-1.632,1.633-3.756,1.949-5.354,3.546c-2.838,2.838,1.311,9.937-2.159,14.962
		c-1.809,2.62-0.514,6.092-1.382,8.908c-1.537,4.992-4.486,5.535-7.686,8.735c-4.014,4.014-0.367,10.349-6.39,14.444
		c-6.103,5.365-5.947,6.865-7.512,14.097c-1.05,4.846-5.542,5.163-5.094,11.07c0.662,8.749-11.635,14.978-1.122,21.708
		c4.317,2.764,5.067,8.208,2.849,12.801c-5.708,12.567-10.158,14.924-1.296,27.242c7.122,9.899,5.027,12.621-3.972,19.892
		c-4.505,3.639-6.25,11.035-5.699,16.779c-3.927,6.269-7.404,12.516-5.958,20.064c0.679,3.55,1.222,15.121-0.086,18.335
		c-1.702,4.181-5.613,3.494-5.613,9.427c0,7.451,5.502,7.072,8.808,11.676c0,17.494,15.869,11.473,18.911,23.697
		c1.446,5.81,4.55,2.325,6.995,5.362c1.325,1.647,1.817,3.007,3.8,3.891c0.286,0.128,1.672,0.18,1.726,0.346
		c2.467,0-0.889,14.107,1.986,18.162c5.283,6.193,0.475,12.072,5.094,16.691c4.821,4.821,7.945,5.504,7.945,13.838
		c0,11.667,5.707,23.298,4.576,35.287c-0.529,4.836-0.947,8.457-2.762,12.887c-1.351,3.294-3.925,6.855-4.49,10.378
		c-0.735,4.583,0.717,16.332-2.159,19.979c-0.522,0.662-3.405,2.656-3.454,2.853c-0.681,0.172-1.371,2.038-1.64,2.595
		c-0.239,0.314-0.694,2.274-0.519,2.508c-0.027,0.013-0.153,0.657-0.259,0.865c-0.173,0.346-0.31,0.709-0.519,1.038
		c-0.646,1.014-0.859,1.407-1.987,1.989c-1.248,2.761-1.025,5.435-1.899,8.303c-0.422,1.384-2.854,3.834-4.145,4.151
		c0,2.541-0.292,4.375,0.519,7.006c1.001,3.253-2.34,4.044-2.677,6.573c-1.752,2.195-2.516,6.026-0.345,7.957
		c2.975,2.647-0.431,3.034-0.431,5.795c0,1.217,0.605,2.301,0.605,3.632c-3.811,1.261-1.046,7.9-2.073,11.07
		c-1.883,5.807-5.062,7.927-10.362,9.687c-3.301,1.097-3.266,4.824-5.268,6.832c-1.071,1.076-2.779,0.706-3.541,1.471
		c-4.764,4.785,1.997,6.883-6.217,8.476c-5.296-0.402-4.113-1.925-6.735-5.882c-2.904-4.381-8.478-4.852-12.521-7.178
		c0.343-0.858-8.636-8.925-8.636-12.627c0-8.132-6.034-1.732-9.498-7.87c-2.331-4.133-2.005-5.409-6.649-2.249
		c-9.205,7.349-8.29,14.305-19.601,4.151c-15.296-13.733-8.453,14-15.198,16.26c-2.092,0.701-11.62-4.27-13.729-5.795
		c-8.391-6.063-15.835,4.013-21.416,9.168c-1.769,1.634-14.165,6.698-16.147,6.313c-4.595-0.891-9.44-7.696-12.78-6.399
		c-7.228-3.297-18.455-13.838-26.337-13.838c-8.818,0-25.728,6.474-31.95,12.713c-5.23,5.245-5.242,13.389-10.016,18.163
		c-1.107,1.107-5.891,2.019-6.39,0c-0.236-0.059-0.161-0.278-0.431-0.346c-0.072-0.292-1.658-2.448-1.899-2.508
		c-0.094-0.373-1.561-2.747-1.986-2.854c-0.097-0.396-1.006-0.955-1.296-1.124c-1.949-0.728-9.403-2.541-10.967-2.854
		c-0.458-1.855-3.489-6.315-4.404-8.562c-2.328-5.718-5.153-4.187-10.448-2.162c-3.916,1.496-3.816-0.778-6.735-0.778
		c-3.416,0-6.077,4.411-10.19,4.411c-6.01,0-9.088-8.373-12.866-8.13c-8.223-5.136-11.181-13.518-12.003-22.573
		c-0.947-10.435-5.958-19.941-5.958-30.789c0-16.061-25.788,19.959-33.59,17.556c-6.637-2.045-4.274-0.368-9.671,2.422l-4.013,0.989
		c-0.811,1.449-1.809,2.797-3.154,3.941c-1.679,1.426-4.644,5.197-6.131,6.919c-7.063,8.177-14.001,11.866-22.329,16.403
		l-3.75-1.354c-10.788-1.522-11.52-2.913-21.501,4.411c-6.958,5.105-12.15-6.124-19.688-8.735
		c-5.972-2.069-11.462-3.147-14.852-8.649c-2.776-4.506-15.617-5.488-21.156-9.254c-8.449-11.858-17.21-8.637-27.977-16.087
		c-3.535-2.446-8.165-1.406-12.003-2.767c-5.175-1.836-9.74-6.272-14.421-9.168c-4.412-2.73-16.244,0.106-16.924-2.768
		c-0.978-4.131,2.333-6.242-3.282-8.389c-8.656,0-16.407,0.611-24.436,3.978c-4.856,2.036-12.887,9.817-15.716,3.46
		c-4.342-9.753-20.824-1.676-27.546-8.908c-4.756-5.115-13.3-15.026-20.724-14.703c-6.486,0.281-10.79,5.657-17.271,3.633
		c-4.693-2.853-12.507,9.298-14.765,11.849c-4.446,5.023-11.568,7.363-17.097,10.984c-18.029,11.802-8.479-10.574-20.033-7.698
		c-10.071,2.506-8.523-2.561-15.63-8.648c-8.558-7.329-17.687-16.169-14.162-29.492c1.087-8.846,5.58-24.418-0.345-32.346
		c-6.273-8.394-21.038-8.097-28.323-16.692c-3.819-4.508-12.195,0.968-16.493,3.633c-7.323,4.54-27,15.077-34.799,15.826
		c-9.699,5.564-5.398,4.872-14.852,1.471c-5.604-2.015-11.547,8.631-13.816,12.714c-2.163,3.892-5.093,1.755-8.462,3.546
		c-6.966,3.7-7.834,5.223-16.32,2.767c-7.928-2.293-18.306-4.451-25.56-8.476c-16.574-9.194-5.911-15.678-7.081-27.848
		c3.752-10.1-13.738-9.255-18.911-9.255c-10.495,0-18.522,9.977-27.719,7.957c-7.9-1.734-0.45-7.703-1.554-12.195
		c-6.776-1.666-22.793-0.843-23.661-9.946c-0.939-9.856-0.487-20.979-14.507-19.633c-5.891-1.599-16.503-5.591-20.724-10.206
		c-4.146-4.534-5.539-12.061-13.471-6.573c-8.173,5.656-4.5,1.124-12.261,1.124c-2.709,0-5.3,2.637-7.772,2.162
		c-3.325-0.637-5.969-2.427-9.067-3.892c-5.455-2.581-21.599-5.342-22.882-11.502c-0.997-4.786,3.1-9.664,2.159-13.319
		c3.641-7.301,9.462-12.948,8.549-21.449c-0.888-8.257,1.296-14.163,1.296-22.227c0-7.066-5.275-10.721-7.167-16.605
		c-5.088-10.177-4.145-17.039-14.507-24.822c-11.516-8.649-25.985-5.372-39.203-8.649c-6.133-1.52-16.952-6.734-22.883-5.968
		c-12.48,1.615-21.662-1.915-33.763-4.411c-12.597-4.576-6.871-13.626-13.124-20.929c-8.938-10.436-14.321,3.313-19.257-2.768
		c-2.644-3.258-2.146-10.265-6.735-11.416c-9.334-2.342-11.615-5.652-13.902-14.702c-1.303-0.329-15.099,3.931-15.456,5.795
		c-1.744,9.091-9.183,5.624-11.139,15.394c-1.106,5.525-4.68,7.608-10.19,6.574c-7.351,1.685-10.362-1.651-16.234-2.94
		c-3.565-0.782-10.4,1.037-14.506,1.037c-0.586-0.876-12.85,3.799-16.58,4.584c-2.764,0.581-13.87-2.926-13.471,1.384
		c0.434,4.699,23.651,27.676,8.808,27.676c-4.255,0-14.254-7.445-18.738-9.687c-11.312-5.655-27.005-17.238-39.031-19.719
		c-9.439-5.102-17.868-12.539-28.841-12.281l-36.699,0.865c-5.431,0.128-21.998-4.811-22.796-4.411
		c-4.299,2.153-5.151,16.3-2.504,19.979c4.508,6.266-4.418,21.877-10.017,25.687c-4.633,5.805-13.565,7.904-20.638,5.189
		c-9.77-3.75-5.256-11.127-10.621-16.952c-3.983-4.323-10.419-4.372-14.679-9.168c-7.076-7.962-3.355-12.8-16.666-12.8
		c-9.432,0-31.671,4.733-39.376,0.606c-8.815-0.742-19.07-3.069-26.078-8.649c-7.414-5.906-3.716-10.543-15.975-7.525
		c-10.659,2.623-38.759-0.721-44.039-10.378c-4.879-8.921-0.997-18.613-4.922-26.725c-1.444-3.983-2.072-5.775-2.072-10.205
		c0-3.945,0.26-5.448-2.85-8.217c-4.114-3.663,1.268-17.838-7.168-20.065c-5.267-1.389-6.815,1.351-12.347-1.816
		c-8.006,0.717-16.079,6.972-24.438,8.562c-7.405,1.409-14.907-1.548-21.674,1.038c-12.651,4.835-30.845,6.079-40.411-5.968
		c-4.387-5.524-7.907-18.309-16.666-16.952c-2.473,0.383-10.002-2.669-10.621-5.189l-1.209-0.606
		c-6.221-6.221-13.479-10.877-19.86-16.605c-5.928-5.323-11.973-12.084-18.738-15.827c-5.475-3.027-12.589-1.374-17.702-3.632
		c-10.319-9.072-8.238-18.409-26.423-19.2c-17.889-0.778-23.393,6.24-33.935,19.287c-11.369,14.071-44.036-19.185-55.351-25.254
		c-7.004-7.014-9.346-14.354-20.206-15.741c-12.065-1.541-16.213-2.057-24.178-11.935c-3.647-4.525-11.678-7.965-16.924-10.206
		c-3.263-1.395-21.511-10.778-22.107-13.146l-0.777-0.519c-7.512-6.023,2.106-11.715-9.498-19.027
		c-2.993-1.885-1.713-5.257-4.145-7.525c-2.745-2.558-8.218-3.078-11.571-4.238c-6.241-2.159-6.845,2.218-10.103,6.747
		c-3.308,4.597-9.718,7.308-15.025,5.967c-1.139-4.609,1.769-4.721-3.972-6.313c-3.278-0.909-1.952-8.715,1.295-7.092
		c4.526-3.382-15.76-28.196-19.601-29.146l-0.345-1.038c-5.703-11.438-7.347-23.964-13.125-35.546
		c-4.518-9.057-27.032-11.318-36.439-13.232c-8.007-1.631-14.332-6.573-22.106-6.573c-2.441-2.441,1.999-8.364-1.986-11.244
		c-5.334-3.853-10.048,5.735-14.853,0.52c-2.417-2.622-4.308-2.161-7.253-0.52c-2.974,1.659-6.1-5.417-9.153-6.573
		c-7.294-2.761-2.962-10.599-6.303-15.222c-2.931-4.057-15.003,2.557-21.847-0.865c-9.215-4.606-19.283-23.804-26.942-24.475
		c-11.728-1.076-10.489-3.016-15.37-11.33c-2.665-4.541-9.414-10.292-14.853-10.551c-4.735-0.225-9.999-0.962-14.075-3.373
		c-5.378-3.182-2.197-14.444-6.909-14.444c-5.792,0-12.983,2.18-18.392,3.546c-1.898,7.512-0.864,9.08-0.864,17.124
		c0,4.587,2.718,16.776,1.209,19.806c-4.107,8.252-18.889-13.364-19.861-17.297c-0.331-0.083-0.768-0.494-1.209-0.779
		c-9.921-9.964-23.443,4.353-29.445-2.162c-7.915-8.589-8.364-25.286-21.156-29.406c-10.849-3.495-7.112-12.266-12.866-14.616
		c-12.159-4.966-16.664,2.447-27.028-9.341c-2.735-4.932-6.856-14.605-13.039-15.309c-5.48-0.624-13.803,0.266-17.874-3.805
		c-6.028-6.028-4.153-32.221,0.345-39.005c1.951-2.945,11.446-9.723,11.744-10.638c0.464,0,0.125,0.015,0.896-0.568
		c0.158-1.665,0.307-3.329,0.572-4.88c0.429-2.503-1.176-6.496-1.554-9.082c-0.952-6.507,3.735-11.273,5.008-17.383
		c0.649-3.118,2.214-7.404,3.886-10.12c1.452-2.357,7.052-6.406,7.686-8.389c0.081-0.256,0.671-0.768,0.863-1.038
		c2.151-3.027,6.132-9.668,10.535-7.87c1.509,0.615,2.214,3.114,4.058,3.114c4.504,0,6.323,2.666,9.671,2.94
		c2.268,0.185,3.538-5.735,6.476-6.66c4.4-1.385,0.864-8.96,0.864-13.318c0-4.108-2.017-4.412-3.627-7.265
		c-2.703-4.792,0.701-11.936,5.699-5.535c5.086,6.512,10.433,4.205,10.103-3.892c-0.246-6.033-0.866-10.677,0.518-16.692
		c1.179-5.131,2.36-10.264,3.54-15.394c2.022-8.798-7.685-3.161-7.685-10.552c0-4.216-6.502-12.789-7.167-17.038
		c-0.946-6.04-5.673-5.906-3.972-13.146c1.097-4.671-2.861-12.767,4.576-12.367c16.081,0.865,4.55-5.851,10.707-12.022
		c2.018-2.022,5.744-2.881,8.204-4.583c3.167-2.19,5.467-4.598,6.822-8.216c0.775-2.073-1.036-4.59,0.863-5.881
		c5.872-3.991,5.963-10.106,11.658-13.752c2.295-1.469,5.036-2.462,6.562-4.93c1.364-2.205,0.944-5.079,1.727-8.303
		c1.048-4.31,5.1-8.56,0-12.714c-2.747-2.237-7.286-2.953-8.808-6.14c-1.049-2.196-0.107-5.242-0.777-7.611
		c-1.574-5.56-9.098-15.797-5.354-20.671c2.752-3.581,5.268-1.817,8.203-6.573c5.069-8.214,10.999-13.774,20.811-9.427
		c8.076,3.577,11.254-5.94,14.765-10.638c6.158-8.24,15.683-9.245,17.875-21.102c0.635-3.439,4.144-5.183,4.144-10.206
		c0-4.918,1.312-9.887,4.404-13.924c6.957-9.081,9.324-4.622,17.788-4.238c5.398,0.244,13.195-1.053,15.542-6.66
		c4.415-10.546,14.869-4.448,18.565-15.135c1.754-5.071,0.633-9.459,4.577-13.665c3.569-3.804,7.357-7.417,10.707-11.416
		c0.293-0.35,3.388-4.867,5.095-5.881c4.714-2.8,9.332-4.957,14.593-6.574c4.358-1.339,5.563-4.976,3.022-8.648
		c-1.977-2.857-3.235-6.063-4.372-9.485c0.122-0.63,4.241-2.971,5.149-4.44c2.396-3.872,1.855-5.732,5.786-8.907
		c1.228-0.993,2.169-3.001,2.936-4.411c0.57-1.047,3.804-3.647,3.886-4.238c3.274-2.493,4.032-2.241,7.426-1.297
		c3.446,0.959,8.13-2.709,11.83-3.632c6.474-1.614,6.822,3.027,12.348,3.027l2.504-0.692l0,0l0.604,4.411
		c-0.36,1.087-0.345,1.814-0.345,2.854c1.59,0.391,5.72,2.414,4.75,4.583c-0.768,1.719-3.566,2.861-2.245,5.103
		c0.839,1.421,2.65,2.142,3.713,3.632c3.786,2.139,2.363,6.353,6.735,7.092c3.727,0.629,4.037,1.559,3.281,5.276
		c-0.419,2.066,0.436,4.56,0.95,6.573c0.589,2.308-0.863,10.205,1.295,11.157c1.043,0.461,2.488-0.702,4.059,0
		c1.902,0.849,2.205,1.65,2.676,3.546c-1.545,2.891-5.752,12.027-2.763,14.443c3.23,2.609,5.418,5.99,8.203,8.995
		c2.914,3.143,8.336,3.892,12.521,3.892c5.848,0,4.949-2.2,9.412-3.805c3.537-1.271,7.391,8.482,15.371,3.546
		c4.779-2.957-5.353-5.873,3.799-10.724c6.104-3.237,10.967-10.98,10.967-18.076c0-11.512-4.447-8.008-8.894-16.952
		c-0.735-0.982-1.296-1.681-1.296-2.94c0-1.294,1.428-1.332,2.332-1.643c1.629-0.56,3.427-0.557,5.181-0.779l5.36-1.647l3.134,1.055
		l6.272,1.024l2.925-4.1c2.838-4.075,6.118-4.458,8.818-7.49c1.176-1.322,0.473-3.07,1.641-4.238
		c1.897-1.897,5.611-2.631,6.908-5.534c1.138-2.548-1.427-3.005,0.345-5.795c1.049-1.652-0.347-3.608,0.173-5.622
		c1.015-3.93,4.395-6.498,5.44-10.465c1.028-3.907-2.871-2.292-3.195-5.795c-0.293-3.186,9.971-5.859,1.986-9.427
		c-1.789-0.8-3.978-2.556-3.367-4.757c1.209-4.365,0.777-5.018,0.777-9.686c1.815-2.522-3.508-5.017,2.763-5.968
		c10.697-1.621-0.179-6.673-2.073-8.821c-1.671-1.895,0.989-9.116,5.094-8.649c3.927,0.447,7.588,0.307,11.226,2.336
		c4.079,2.276,4.48,5.449,7.858,8.562c2.328,2.144,16.339,5.647,19.429,5.881c4.785,0.363,3.098-26.741,11.484-20.497
		c2.175,1.618,11.302,8.379,12.78,2.594c2.529-9.898-1.948-7.264,7.339-7.264c4.166,1.61,16.021,6.576,18.911,9.254
		c2.189,2.029,4.542,0.503,6.303,1.903c7.823,6.223,8.407,10.67,20.292,8.389c5.281-1.014,7.125,1.908,10.881,4.238
		c3.273,2.03,9.043-0.432,12.607-0.432c1.169,3.508,15.188,11.375,19.515,11.071c5.069-0.357,5.017-4.479,10.276-3.46
		c2.207,0.428,2.704,5.352,4.836,7.784c3.108-0.2,4.378,3.936,6.735,4.324c4.066,0.668,5.475-10.493,10.189-7.611
		c0.774,0.474,8.792,2.526,9.067,2.076c1.19-1.946,3.659-7.692,5.18-8.216c3.01-1.036,12.608,6.526,12.608,9.341
		c0,4.229,3.715,9.036,2.331,12.886c-1.261,3.504-2.52,6.066-1.036,9.687c2.452,5.979-6.853,7.968-4.144,14.097
		c1.717,3.883,2.991,2.206,6.217,3.2c3.863,1.189,2.04,3.725,3.195,6.833c4.131,4.699,14.253,4.093,15.803,7.87
		c1.024,2.499-0.61,5.059,0.518,7.611c1.83,4.142,9.325,1.247,3.972,7.956c-1.812,2.272-5.055,4.178-6.994,7.092
		c-1.097,1.648,3.439,3.053,2.159,6.919c-0.72,2.173-9.042,14.134-0.691,13.059c5.721-0.737,8.687,0.865,13.816,0.865
		c2.406,0,6.245-4.678,7.944-1.902c2.769,4.527,8.582,1.621,10.88,7.264c3.917,9.62,6.498,3.668,11.916,1.644
		c5.045-1.421,10.228,6.107,11.398,10.551c2.299,8.731,4.897-4.756,7.426-3.114l9.326,6.054c5.169,3.355,9.817,11.676,16.666,11.676
		c5.212,0,3.101,11.269,10.276,10.724c3.027-0.23,7.071-8.004,9.153-7.264l9.24,3.286c6.013,2.138,0.061,9.505,6.648,12.195
		c5.929,2.422,3.416,8.257,7.512,12.367l11.571,5.535c3.983,1.904-1.296,4.247-1.296,7.005c-6.369,1.61-1.459,7.913,3.714,5.622
		c4.45-1.971,8.272,1.942,11.57-2.854c2.939-4.277,13.424,3.115,14.248,6.054c1.951,6.958,4.2,4.945-1.468,10.033
		c-1.842,1.654-8.659,4.311-9.066,5.362c-2.347,6.05,1.041,11.004,8.203,6.573c6.131-3.794,11.997,4.42,13.729,9.081
		c1.699,9.633,10.714,8.078,17.875,10.465v0.172c0.224,0.076-0.096,1.737-0.173,1.989c-2.403,7.825,9.761,9.963,15.025,7.957
		c2.76-1.051,4.751-3.551,7.254-4.497c0.832-0.315,11.319-1.048,11.657-0.779c3.269,2.599,5.392-1.21,5.009,4.757
		c-0.401,6.249,1.436,11.274,7.944,7.698c2.632-1.447,3.678,1.001,5.871,1.73c2.24,0.743,3.42-2.162,5.699-2.162l3.628,5.276
		c1.772,2.337,6.092-1.206,6.735,3.805c0.946,7.372,6.933,3.593,8.98,9.772c3.289,9.922,15.617-4.346,17.702-2.508
		c1.657,1.462,5.476-1.263,8.03-0.345c5.688,2.046-0.782,11.329,6.995,11.329c3.219,0,4.891-8.071,7.081-5.881
		c2.189,2.189,6.562-0.305,6.562,3.979c0,5.48,6.276,6.781,10.621,7.87c1.453,0.364,12.261,3.831,10.535,6.14
		c1.522,2.048-8.002,1.065-8.894,3.546c-0.757,2.109,3.364,4.908,4.058,7.006c0.803,2.423-0.176,12.26,5.094,10.637
		c4.386-1.351,9.389-2.986,13.644-0.865c3.481,2.653,6.735,1.068,6.735,6.487c0,6.522-1.304,9.316,5.008,12.887
		c3.679,2.08,1.85,6.789,5.958,9.081c2.644,1.474,6.84-0.123,9.327,1.124c1.362,0.684,3.503,10.818,2.59,12.194
		c-3.138,4.736-4.856,7.26,0.432,11.503c3.082,4.221,6.477,2.24,6.045,7.956c-0.822,10.848,0.449,10.093,5.872,19.286
		c3.813,6.466,4.734-3.812,10.276,4.844c2.889,4.514,9.789,3.487,7.512,10.898c-3.78,12.305,16.147,12.469,16.147,13.405
		c0,11.307,11.015,4.899,12.78,7.784c3.09,5.053,4.7,8.306,9.757,3.805c3.855-3.433,6.341-3.037,4.404-8.649
		c-0.964-2.794,9.331-7.452,12.347-10.984c7.411-8.675,6.912-7.784,18.047-7.784c3.546,1.142,18.429-1.087,16.58-7.092
		c-2.46-7.987-1.285-7.136,3.626-14.703c1.59-2.451,6.973,4.08,11.917-0.864c4.733-4.733,15.849-6.78,21.415-4.93
		c9.441,3.137,8.223-5.228,16.924-2.336c11.3,3.755,3.103,5.32,6.822,10.465c5.558,7.694,14.171-3.716,17.184,0
		c5.284,6.514,4.829,1.578,10.103,0.778c3.682-0.557,7.06,4.985,10.104,6.919c0.337,0.631,0.219,0.802,0.604,0.865
		c0,4.29-5.198,7.407,1.036,9.946c2.183,0.889,2.395,3.2,5.094,3.2c4.9,0,4.932-2.309,10.017-0.606
		c3.111,1.043,6.294-1.905,9.498-1.643c0.641,0.052,0.092,7.263-0.172,8.562c-1.412,6.945-8.277,1.971-11.226,7.87
		c-1.577,3.154,2.467,23.759,5.613,24.562c7.691,1.965,4.564-0.578,5.699,6.487c0.83,5.163-1.617,7.06-4.749,10.984
		c0.73,3.254,0.769,8.364,2.159,11.157c1.365,2.743,5.045-1.181,6.994-1.643c2.434-0.578,8.878,4.242,10.104,6.487
		c1.699,3.115,2.269,6.329-0.345,9.168c-3.927,4.261,0.739,11.288-3.023,17.384c-3.259,5.281-5.251,14.66-2.59,20.67
		c2.093,4.056,5.541,8.852,10.449,7.352c6.611-2.021,18.241,11.943,23.314,6.227c3.054-3.443,4.578,0.291,7.426,1.902
		c4.807,2.718,8.698-2.175,14.766,3.892c4.356,4.356-3.168,3.798,5.008,7.438c3.344,1.488,2.024,4.13,2.591,7.092
		c1.156,6.041,5.255,5.33,3.195,12.022c-0.747,2.424,4.441,7.856,6.908,8.907c2.78,0.809,6.982,5.709,7.945,5.709
		c3.706,0,5.081-5.525,9.239-4.497c1.251,4.952,7.62,0.507,9.672-0.519c3.229-1.614,4.798,1.624,6.908,3.545
		c2.768,2.519,13.507,1.369,17.702,2.422c5.602,1.406,10.959,14.306,15.025,18.941c1.917,2.187,10.295,0.898,8.894,5.448
		c-0.815,2.645-2.373,9.265,0.173,11.157c3.297-1.649,8.234,6.24,11.744,6.487c6.607,0.465,9.741,1.613,16.061,4.411
		c2.334,2.057,20.303,12.557,22.537,11.071c2.605-1.735,3.812-2.53,6.821-3.114c3.448-0.668,2.219-3.808,5.182-4.238l12.521-1.817
		c4.337-0.629,1.876,3.619,4.403,4.758c1.19,0.537,13.918-3.047,12.694-6.054c-2.021-4.964,1.555-10.927,6.218-13.579
		c1.836-2.422,6.234-4.433,6.994-7.525c2.337,0,6.565-8.633,9.067-7.091c5.714,3.519,7.339,3.431,12.347-1.211
		c3.758-3.483,11.72,6.457,13.558,9.427c4.05,6.546,11.311,2.032,11.311,7.784c4.69,1.178,4.333,5.945,1.382,8.908
		c-3.679,3.695-5.631,4.794-2.676,9.946c0.321,2.577,2.85,4.234,2.85,6.833c0,1.545-0.951,10.647-1.9,10.724
		c-3.099,0.254-4.08-2.267-4.404,2.335c-0.205,2.931-4.735,8.791-6.218,11.763c-2.044,4.099-8.541,0.541-9.152,3.027
		c-0.439,0.108-1.072,3.159-1.727,3.892c-2.754,3.082-8.98,8.827,0,10.638c0.939,3.798-1.385,7.245,0.259,11.588
		c2.258,5.967,4.393,5.446,1.468,12.714c-0.821,4.243-5.68,8.962-2.591,12.801c1.735,2.155,18.965,7.184,21.329,6.399
		c2.197-0.73,5.196-6.16,6.822-5.535c2.905,1.114,12.001,6.834,12.952,9.773c2.556,7.902,10.943,8.334,18.651,7.005
		c3.072-0.53,12.13-5.763,14.162-3.459c3.055,3.465,0.232,6.044,8.031,7.005c9.279-1.792,12.155-9.8,15.888-17.297
		c1.081-2.173,17.676-1.974,20.811-1.471c11.353,1.824,17.095,9.773,29.186,9.773c6.323,0,6.532,13.387,8.117,18.249l13.902-12.108
		c4.883-4.253,1.276-12.946,4.491-19.2c2.912-5.666,5.612,2.692,5.612-10.033c0-10.571,16.432-1.305,13.902,8.303
		c-1.406,5.339,3.119,6.937,1.9,11.849c-1.427,5.746-1.25,13.475,1.468,18.941c0.794,6.185,9.204,17.082,14.334,20.497
		c3.958,2.635,6.391-1.373,10.104,3.201c3.185,3.925,3.956,3.628,8.549,4.757l2.504,6.66c-0.404,1.599,5.558,5.088,5.354,8.476
		c-0.819,13.568,4.837,3.543,7.858,10.378c2.266,5.126,2.786,8.904,0.432,14.444c1.429,3.818,0.18,5.349,4.145,7.524
		c3.332,1.826,3.837,5.162,6.045,8.216c2.439,3.377,7.706,4.866,9.843,8.303l4.059,4.67l-9.344,14.777
		c3.4,4.42,9.589,11.356,15.56,11.775c2.462,0.173,4.591-0.89,6.995,0.173c2.25,0.994,1.491,3.985,4.663,3.805
		c2.665-0.15,10.298,1.522,11.657-0.52c3.177-4.774,23.201-6.412,15.802-12.367c-4.652-3.744-2.377-12.288-4.49-17.47
		c-1.311-3.218-6.161-6.031-5.613-9.341l2.936-17.729c0.482-2.909-2.993-6.595-0.086-9.514c2.908-2.919,5.994,3.372,10.016-2.161
		c2.958-3.367,3.06-7.565,5.785-10.638c1.518-1.71,12.098-4.135,10.621-7.438c-1.488-3.33-2.497-10.141,3.54-8.649
		c0,9.488,9.562,15.721,10.535,24.475c0.597,5.371-7.465,2.993-6.045,8.39c0.547,2.076,2.156,3.616,2.676,5.709
		c0.53,2.134,0.413,5.099,0.691,7.351c0,6.423,1.635,13.21,3.195,19.287c2.838,11.064,11.545-0.051,20.292,5.362
		c3.537,2.188,4.415,7.379,7.167,9.081c2.267,1.403,6.486-3.128,7.167-5.189h0.173l0.086,0.086c0,10.61,4.259,7.453,11.398,8.822
		c5.048,0.969,6.115,4.824,8.635,8.908c2.759,4.47,14.345,3.184,17.875-0.346c5.829-5.829-2.842-13.492,9.585-13.492
		c2.061-0.967,5.398-1.414,7.598-1.73l3.195-20.237c0.581-3.683,3.713-5.427,3.713-9.514c0-5.004,11.165-3.023,8.549-12.454
		c-3.635-13.106,11.571-17.421,14.593-5.967c3.541,13.412,16.286,6.343,22.02-1.471c5.711-7.785,30.113,0.495,24.955,10.811
		c-6.726,13.454,15.617,16.141,25.042,19.287c5.496-1.598,2.082-5.464,9.671-4.93c1.011,0.071,2.897,6.407,6.304,7.697
		c4.187,1.584,2.459,5.276,8.03,5.276c8.595,0,2.473,8.072,8.29,10.464c7.243,2.977,14,3.267,20.81,1.471
		c2.129-0.562,8.489,2.321,10.793,3.2c4.024,1.533-0.836,6.785,6.304,7.439c8.369,3.927,2.54,12.971,13.039,15.567
		c0,20.66,20.237,18.232,35.49,22.141c5.575,1.429,9.263-14.799,20.119-9.6c4.006,1.919,7.396,0.461,9.93,4.758
		c2.952,5.005,7.08,0.758,11.312,2.335c4.224-0.543,5.916-4.247,9.153-6.487c1.62-1.121,2.989-0.674,4.749-1.124
		c2.241-0.573,4.08-2.268,6.131-3.2l3.33-2.694c1.436,1.991,0.301,10.67-1.948,11.43c0.592,1.792,6.191,2.232,8.289,3.027
		c7.303,2.763,12.998-11.441,19.861-7.697c4.136,2.257,15.55-3.397,16.839-7.265c5.298,1.338,8.376,3.779,8.376,9.773
		c0,8.597,2.11,4.724,6.821,7.87c3.52,2.349,4.725-0.255,5.958-3.286c1.177-2.889,10.204-4.115,12.521-2.509
		c1.99,1.379,1.022,3.762,0.519,5.882c-0.838,3.535,4.517,2.663,6.476,2.422l7.326-0.779c2.753,0.845,6.995,3.859,6.995-2.249
		c0-5.432,4.336-5.238,7.426-7.957c1.04-0.916,2.4-6.551,4.663-9.081c3.209-3.59,4.726-10.749,7.686-15.395
		c2.26-3.547,7.252-2.177,8.117-4.584c2.012-5.593,1.474-13.271,8.98-8.648c2.436,1.501,2.331,3,2.331,6.054
		c0,1.098,0.957,7.707,2.59,6.487c3.324,4.969,14.824-4.259,17.961-2.508c6.691,3.733,9.2,3.947,14.938,9.686
		c1.868-0.301,2.416,2.085,4.144,1.643c2.419-0.62,3.691-2.693,6.822-3.373c2.861-0.62,5.931-2.358,8.808-2.594
		c3.544-0.29,4.087,0.463,6.304,2.853c2.264,2.444,7.471-3.669,9.239,0c1.714,3.559,1.898,9.209,6.044,10.638
		C2590.126,961.119,2593.937,952.966,2598.265,952.966L2598.265,952.966L2598.265,952.966z"/>
	<g>
		<path fill-rule="evenodd" clip-rule="evenodd" fill="#FFFFFF" d="M633.264,402.667c87.058,0,157.628-70.569,157.628-157.628
			c-13.854,35.215-38.908,64.362-70.829,83.365l-13.455-10.022L732.98,298.6l-31.921-8.184l16.888-28.626l-32.979,4.751
			l4.872-32.718l-28.626,17.148l-8.167-32.32l-19.784,26.39l-19.801-26.39l-8.305,32.198L576.67,233.96l4.872,32.979l-32.979-4.89
			l17.148,28.626l-32.181,8.184l26.39,19.784l-13.195,10.161c-31.262-18.466-56.715-46.971-70.968-83.365
			C475.757,332.497,546.327,403.066,633.264,402.667z"/>
		<polygon fill-rule="evenodd" clip-rule="evenodd" fill="#FFFFFF" points="557.285,634.835 486.577,626.131 529.438,682.846 
			463.88,710.814 529.438,738.521 486.577,795.237 557.285,786.533 548.563,857.362 605.296,814.5 633.264,880.18 660.954,814.5 
			717.947,857.501 709.243,786.793 779.951,795.636 737.071,738.903 802.63,711.213 737.071,683.245 779.951,626.53 
			709.243,635.095 717.947,564.387 661.214,607.266 633.264,541.448 605.556,607.006 548.563,564.127 		"/>
	</g>
</g>
</svg>
