<?xml version="1.0" encoding="UTF-8" standalone="no"?>
<!DOCTYPE svg PUBLIC "-//W3C//DTD SVG 1.1//EN" "http://www.w3.org/Graphics/SVG/1.1/DTD/svg11.dtd">
<svg version="1.1" xmlns="http://www.w3.org/2000/svg" xmlns:xlink="http://www.w3.org/1999/xlink" preserveAspectRatio="xMidYMid meet" viewBox="0 0 640 640" width="640" height="640"><defs><path d="M478.94 516.65C320.42 516.65 232.36 516.65 214.75 516.65C206.27 516.65 199.33 511.16 199.33 504.45C199.33 503.96 199.33 500.06 199.33 499.57C199.33 496.56 200.72 493.8 203.02 491.67C202.2 491.67 195.61 491.67 194.79 491.67C186.31 491.67 179.37 486.18 179.37 479.47C179.37 472.76 186.31 467.27 194.79 467.27C197.15 467.27 216.04 467.27 218.4 467.27C213.54 465.21 210.21 461.15 210.21 456.5C210.21 449.79 217.15 444.3 225.64 444.3C252.45 444.3 467 444.3 493.82 444.3C502.3 444.3 509.24 449.79 509.24 456.5C509.24 463.21 502.3 468.7 493.82 468.7C490.64 468.69 465.24 468.56 462.06 468.54C465.35 469.27 466.68 471.22 467.51 473.68C468.78 477.48 468.67 482.06 466.05 485.07C464.6 486.74 462.45 487.59 461.07 487.64C462.86 487.61 477.15 487.39 478.94 487.37C487.42 487.37 494.36 492.86 494.36 499.57C494.36 500.06 494.36 503.96 494.36 504.45C494.36 511.16 487.42 516.65 478.94 516.65" id="b1Fll987Fj"></path><path d="M374.1 464.66L383 470.44C384.85 473.19 385.88 474.72 386.09 475.03C386.09 475.03 382.92 476.64 381.14 477.09C379.36 477.53 365.25 476.01 365.25 476.01C365.23 475.45 365.1 472.66 364.87 467.64L374.1 464.66" id="brU1XTdZu"></path><path d="M329.6 470.97C332.24 473.96 333.7 475.63 334 475.96C334 475.96 337.58 482.73 335.78 482.63C333.99 482.53 324.23 483.05 323.57 481.92C322.92 480.79 317.74 476.85 317.06 476.08C316.38 475.31 317.07 468.95 317.07 468.95C317.91 469.09 322.08 469.76 329.6 470.97" id="a72sYKMLf"></path><path d="M354.76 338.11L343.7 406.16L329.6 470.97L317.03 470.24C318.48 429.2 319.29 406.4 319.45 401.84C319.45 401.84 310.39 338.97 310.36 320.37C313.32 321.55 328.12 327.47 354.76 338.11" id="c2GpB2fMFk"></path><path d="M382.5 341.47L377.44 467.06L364.51 467.66L357.63 403.85L347.62 347.54L374.35 312.7L382.5 341.47" id="a1iXI6oKs0"></path><path d="M375.72 275.34C368.94 241.94 377.55 225.84 362.71 216.56C362.71 216.56 338.53 209.83 323.13 221.02C322.91 221.18 322.7 221.33 322.49 221.49C322.12 222.28 320.25 226.2 316.89 233.27C314.34 264.97 312.93 282.58 312.64 286.1C312.64 286.1 300.76 355.46 307.07 356.02C314.22 356.66 347.02 341.18 353.25 341.55C359.48 341.91 378.54 345.37 396.52 339.17C411.95 333.86 382.5 308.74 375.72 275.34" id="fptDUYjLM"></path><path d="M345.65 215.53L340.95 215.7L340.47 220.5L357.75 269.4L361.62 248.21L357.39 217.43L345.65 215.53" id="amtATo8wI"></path><path d="M360.91 252.09C360.88 250.16 360.79 248.43 360.63 247.02C359.54 237.31 352.7 224.64 352.7 224.64C352.7 224.64 352.24 221.88 352.14 219.47C351.76 219.4 349.86 219.09 346.44 218.53L346.81 224.55C348.28 226.1 349.1 226.97 349.27 227.14C349.27 227.14 355.23 250.25 355.35 259.52C355.36 260.49 355.35 261.49 355.31 262.5C355.47 262.96 356.29 265.26 357.75 269.4L360.91 252.09" id="c1dc0Hteq8"></path><path d="M359.86 288.2L353.2 341.45L367.24 343.46L376.95 342.69L364.67 296.49L359.86 288.2" id="e1sj5Tih0S"></path><path d="M352.03 217.65C348.8 217.78 345.58 217.92 342.36 218.05C341.97 215.48 341.78 212.87 341.8 210.27C339.02 209.7 335.76 208.72 334.91 205.98C334.64 205.12 334.66 204.2 334.69 203.29C334.81 199.56 333.77 195.77 335.04 192.08C335.46 190.86 335.13 189.46 335.65 188.28C336.58 186.22 338.77 185.06 340.91 184.36C346.35 182.59 352.6 182.94 357.44 186.03C358.73 186.85 359.94 187.88 360.65 189.25C361.74 191.35 361.49 193.88 361.22 196.23C360.97 198.41 360.71 200.59 360.46 202.77C360.17 205.27 359.65 208.15 357.47 209.38C356.32 210.04 354.86 210.1 353.85 210.97C352.08 212.5 352.75 215.4 352.03 217.65" id="chgZwbdQ6"></path><path d="M365.88 169.1C365.16 169.03 364.42 168.94 363.66 168.68C361.24 167.85 359.44 165.94 356.89 165.19C351.73 163.67 345.49 164.49 340.75 167C336.22 169.41 329.88 170.72 325.9 173.77C324.23 175.04 323.02 176.84 322.14 178.75C319.1 185.38 320.24 193.75 324.95 199.3C326 200.54 327.21 201.64 328.46 202.68C331.06 204.83 334.17 207.5 337.4 207.97C337.08 205.16 333.33 196.68 335.13 194.08C337.53 190.63 342.77 190.27 346.55 190.3C351.05 190.34 354.61 188.57 359.08 188.42C361.36 188.34 363.97 188.58 365.58 186.95C367.45 185.07 371.25 179.27 372.06 176.8C372.77 174.64 371.96 172.12 370.29 170.6C368.84 169.28 367.4 169.24 365.88 169.1" id="d2GVMvqyNE"></path><path d="M396.2 242.66L366.91 215.8L359.87 221.81L384.11 262.8C390.68 263.43 394.33 263.79 395.06 263.86C395.06 263.86 398.21 252.45 398.86 251.24C398.68 250.67 397.8 247.81 396.2 242.66" id="c7Rcv4sbIP"></path><path d="M257.85 441.86C252.32 440.1 246.96 440.56 241.92 443.23C236.87 445.89 233.43 450.07 231.69 455.66C229.95 461.25 230.4 466.68 233.04 471.78C235.67 476.89 239.8 480.37 245.32 482.13C247.51 482.83 249.68 483.18 251.81 483.18C255.04 483.18 258.2 482.37 261.25 480.77C266.3 478.1 269.74 473.92 271.48 468.33C273.21 462.75 272.76 457.33 270.13 452.21C267.49 447.1 263.36 443.62 257.85 441.86" id="cxcp5PlEz"></path><path d="M270.13 452.21C267.49 447.1 263.36 443.62 257.85 441.86C256.06 441.29 254.3 440.96 252.56 440.85C256.02 442.81 258.75 445.67 260.67 449.39C263.3 454.51 263.75 459.93 262.02 465.52C260.28 471.1 256.84 475.29 251.79 477.95C248.74 479.56 245.58 480.36 242.34 480.36C241.95 480.36 241.55 480.34 241.15 480.32C242.44 481.05 243.83 481.65 245.32 482.13C247.51 482.83 249.68 483.18 251.81 483.18C255.04 483.18 258.2 482.37 261.25 480.77C266.3 478.1 269.74 473.92 271.48 468.33C273.21 462.75 272.76 457.33 270.13 452.21" id="d1KpzEmQ3"></path><path d="M373.89 304.18C365.28 288.95 350.8 278.01 330.85 271.66C310.91 265.31 292.75 265.85 276.89 273.27C263.09 279.72 252.99 290.66 246.84 305.79C245.8 308.34 245.87 311.24 247.03 313.73C248.18 316.23 250.34 318.14 252.94 318.97C254.12 319.34 263.62 322.37 264.81 322.75C269.55 324.26 274.65 321.92 276.66 317.31C280.24 309.14 285.3 303.59 292.15 300.36C300.44 296.44 310.45 296.31 321.89 299.95C333.29 303.58 341.31 309.6 345.71 317.85C350.09 326.07 350.53 335.97 347.01 347.29C342.16 362.88 334.48 371.99 324.18 374.34C313.33 376.82 298.09 374.86 278.87 368.52C278.35 368.36 274.24 367.05 273.73 366.89C268.6 365.25 263.11 368.15 261.5 373.34C260.09 377.87 248.82 414.11 247.41 418.64C246.63 421.16 246.86 423.83 248.06 426.17C249.27 428.51 251.3 430.23 253.79 431.02C254.99 431.41 264.63 434.47 265.83 434.86C266.8 435.17 267.79 435.31 268.75 435.31C272.9 435.31 276.76 432.61 278.06 428.41C278.98 425.47 286.27 402 287.19 399.07C287.3 398.7 287.68 398.49 288.04 398.6C310.68 405.14 329.49 405.59 343.96 399.93C359.35 393.91 370.48 380.13 377.06 358.99C383.61 337.93 382.54 319.49 373.89 304.18" id="f4skafMGJ"></path><path d="M373.89 304.18C365.28 288.95 350.8 278.01 330.85 271.66C318.5 267.72 306.84 266.44 295.98 267.79C301.68 268.45 307.56 269.73 313.6 271.66C333.54 278.01 348.02 288.95 356.64 304.18C365.29 319.49 366.36 337.93 359.81 358.99C353.23 380.13 342.1 393.91 326.71 399.93C322.26 401.67 317.41 402.83 312.16 403.41C324.35 404.59 334.99 403.44 343.96 399.93C359.35 393.91 370.48 380.13 377.06 358.99C383.61 337.93 382.54 319.49 373.89 304.18" id="adYNKDzWA"></path><path d="M328.26 218.05L314.38 222.38L281.17 279.67L283.43 290.75L326.46 312.52L332.49 300.68L305.32 279.67L321.93 256.76L328.34 220.09L328.26 218.05" id="aEPSkAWfn"></path><path d="M366.34 216.29L359.29 208.63L352.5 210.54L350.61 217.41L356.65 218.56L362.32 219.72L366.34 216.29" id="f2Xod9VaGp"></path><path d="M331.9 301.85L338.68 303.26L337.59 307.3L343.46 314.25L335.41 317.22L327.53 310.42L331.9 301.85" id="gBLqM8CFy"></path><path d="M422.12 156.95C422.11 156.93 422.1 156.92 422.1 156.92C422.14 156.9 422.17 156.88 422.21 156.86C422.2 156.87 422.17 156.9 422.12 156.95ZM399.27 155.75C397.09 158.32 395.77 161.67 395.78 165.33C395.81 173.41 402.31 179.94 410.29 179.91C412.77 179.9 415.1 179.26 417.13 178.14C419.81 186.77 427.8 193.02 437.21 192.99C444.77 192.96 451.38 188.88 455.05 182.8C459.73 188.58 466.85 192.26 474.82 192.23C488.86 192.18 500.21 180.61 500.16 166.4C500.15 164.54 499.94 162.73 499.57 160.99C508.2 158.33 514.47 150.2 514.44 140.6C514.39 128.88 504.97 119.42 493.39 119.46C491.88 119.46 490.41 119.64 489 119.95C489 119.79 489.01 119.63 489.01 119.47C488.98 111.39 482.48 104.87 474.49 104.9C470.38 104.92 466.68 106.67 464.05 109.48C459.66 101.68 451.36 96.44 441.87 96.48C429.26 96.53 418.84 105.85 416.87 118.03C415.15 117.59 413.36 117.34 411.5 117.35C399.92 117.4 390.57 126.93 390.61 138.65C390.64 145.69 394.05 151.91 399.27 155.75" id="ejdiwUXh0"></path><path d="M414.07 198.83C414.85 203.72 411.56 208.32 406.73 209.1C404.75 209.42 402.81 209.05 401.17 208.17C400.45 210.7 398.34 212.73 395.59 213.17C391.8 213.79 388.24 211.18 387.63 207.34C387.54 206.78 387.52 206.22 387.56 205.67C384.24 206.01 381.2 203.67 380.66 200.29C380.1 196.78 382.46 193.47 385.93 192.91C386.65 192.79 387.35 192.8 388.03 192.92C388.72 189.33 391.55 186.39 395.32 185.78C399.49 185.11 403.44 187.49 404.94 191.29C409.38 191.09 413.35 194.29 414.07 198.83" id="cwi2j1e4P"></path></defs><g><g><g><use xlink:href="#b1Fll987Fj" opacity="1" fill="#de9c91" fill-opacity="1"></use><g><use xlink:href="#b1Fll987Fj" opacity="1" fill-opacity="0" stroke="#000000" stroke-width="1" stroke-opacity="0"></use></g></g><g><use xlink:href="#brU1XTdZu" opacity="1" fill="#273140" fill-opacity="1"></use><g><use xlink:href="#brU1XTdZu" opacity="1" fill-opacity="0" stroke="#000000" stroke-width="1" stroke-opacity="0"></use></g></g><g><use xlink:href="#a72sYKMLf" opacity="1" fill="#273140" fill-opacity="1"></use><g><use xlink:href="#a72sYKMLf" opacity="1" fill-opacity="0" stroke="#000000" stroke-width="1" stroke-opacity="0"></use></g></g><g><use xlink:href="#c2GpB2fMFk" opacity="1" fill="#2e4661" fill-opacity="1"></use><g><use xlink:href="#c2GpB2fMFk" opacity="1" fill-opacity="0" stroke="#000000" stroke-width="1" stroke-opacity="0"></use></g></g><g><use xlink:href="#a1iXI6oKs0" opacity="1" fill="#2e4661" fill-opacity="1"></use><g><use xlink:href="#a1iXI6oKs0" opacity="1" fill-opacity="0" stroke="#000000" stroke-width="1" stroke-opacity="0"></use></g></g><g><use xlink:href="#fptDUYjLM" opacity="1" fill="#677b91" fill-opacity="1"></use><g><use xlink:href="#fptDUYjLM" opacity="1" fill-opacity="0" stroke="#000000" stroke-width="1" stroke-opacity="0"></use></g></g><g><use xlink:href="#amtATo8wI" opacity="1" fill="#ffffff" fill-opacity="1"></use><g><use xlink:href="#amtATo8wI" opacity="1" fill-opacity="0" stroke="#000000" stroke-width="1" stroke-opacity="0"></use></g></g><g><use xlink:href="#c1dc0Hteq8" opacity="1" fill="#2e4661" fill-opacity="1"></use><g><use xlink:href="#c1dc0Hteq8" opacity="1" fill-opacity="0" stroke="#000000" stroke-width="1" stroke-opacity="0"></use></g></g><g><use xlink:href="#e1sj5Tih0S" opacity="1" fill="#ffffff" fill-opacity="1"></use><g><use xlink:href="#e1sj5Tih0S" opacity="1" fill-opacity="0" stroke="#000000" stroke-width="1" stroke-opacity="0"></use></g></g><g><use xlink:href="#chgZwbdQ6" opacity="1" fill="#e7caad" fill-opacity="1"></use><g><use xlink:href="#chgZwbdQ6" opacity="1" fill-opacity="0" stroke="#000000" stroke-width="1" stroke-opacity="0"></use></g></g><g><use xlink:href="#d2GVMvqyNE" opacity="1" fill="#3a3029" fill-opacity="1"></use><g><use xlink:href="#d2GVMvqyNE" opacity="1" fill-opacity="0" stroke="#000000" stroke-width="1" stroke-opacity="0"></use></g></g><g><use xlink:href="#c7Rcv4sbIP" opacity="1" fill="#6d8299" fill-opacity="1"></use><g><use xlink:href="#c7Rcv4sbIP" opacity="1" fill-opacity="0" stroke="#000000" stroke-width="1" stroke-opacity="0"></use></g></g><g><use xlink:href="#cxcp5PlEz" opacity="1" fill="#d76755" fill-opacity="1"></use><g><use xlink:href="#cxcp5PlEz" opacity="1" fill-opacity="0" stroke="#000000" stroke-width="1" stroke-opacity="0"></use></g></g><g><use xlink:href="#d1KpzEmQ3" opacity="1" fill="#c05645" fill-opacity="1"></use><g><use xlink:href="#d1KpzEmQ3" opacity="1" fill-opacity="0" stroke="#000000" stroke-width="1" stroke-opacity="0"></use></g></g><g><use xlink:href="#f4skafMGJ" opacity="1" fill="#d76755" fill-opacity="1"></use><g><use xlink:href="#f4skafMGJ" opacity="1" fill-opacity="0" stroke="#000000" stroke-width="1" stroke-opacity="0"></use></g></g><g><use xlink:href="#adYNKDzWA" opacity="1" fill="#c05645" fill-opacity="1"></use><g><use xlink:href="#adYNKDzWA" opacity="1" fill-opacity="0" stroke="#000000" stroke-width="1" stroke-opacity="0"></use></g></g><g><use xlink:href="#aEPSkAWfn" opacity="1" fill="#6d8299" fill-opacity="1"></use><g><use xlink:href="#aEPSkAWfn" opacity="1" fill-opacity="0" stroke="#000000" stroke-width="1" stroke-opacity="0"></use></g></g><g><use xlink:href="#f2Xod9VaGp" opacity="1" fill="#d6bba0" fill-opacity="1"></use><g><use xlink:href="#f2Xod9VaGp" opacity="1" fill-opacity="0" stroke="#000000" stroke-width="1" stroke-opacity="0"></use></g></g><g><use xlink:href="#gBLqM8CFy" opacity="1" fill="#e7caad" fill-opacity="1"></use><g><use xlink:href="#gBLqM8CFy" opacity="1" fill-opacity="0" stroke="#000000" stroke-width="1" stroke-opacity="0"></use></g></g><g><use xlink:href="#ejdiwUXh0" opacity="1" fill="#de9c91" fill-opacity="1"></use><g><use xlink:href="#ejdiwUXh0" opacity="1" fill-opacity="0" stroke="#000000" stroke-width="1" stroke-opacity="0"></use></g></g><g><use xlink:href="#cwi2j1e4P" opacity="1" fill="#de9c91" fill-opacity="1"></use><g><use xlink:href="#cwi2j1e4P" opacity="1" fill-opacity="0" stroke="#000000" stroke-width="1" stroke-opacity="0"></use></g></g></g></g></svg>