<?xml version="1.0" encoding="UTF-8" standalone="no"?>
<!DOCTYPE svg PUBLIC "-//W3C//DTD SVG 1.1//EN" "http://www.w3.org/Graphics/SVG/1.1/DTD/svg11.dtd">
<svg version="1.1" xmlns="http://www.w3.org/2000/svg" xmlns:xlink="http://www.w3.org/1999/xlink" preserveAspectRatio="xMidYMid meet" viewBox="0 0 640 640" width="640" height="640"><defs><path d="M532.51 297.5C654.3 367.84 654.3 481.9 532.51 552.24C410.72 622.58 213.27 622.59 91.48 552.24C-30.31 481.9 -30.31 367.85 91.48 297.5C213.27 227.16 410.73 227.16 532.51 297.5" id="b7DKb3d56"></path><path d="M524.83 354.25C546.17 366.57 546.17 386.54 524.83 398.86C503.49 411.18 468.89 411.18 447.55 398.86C426.21 386.54 426.21 366.57 447.55 354.25C468.89 341.92 503.49 341.92 524.83 354.25" id="b1VvOzy0nS"></path><path d="M383.17 586.95C474.23 534.38 524.82 505.17 534.94 499.33C538.27 497.41 538.27 494.29 534.94 492.37C502.95 473.91 246.97 326.17 214.97 307.71C211.65 305.79 206.25 305.79 202.93 307.71C187.75 316.47 66.33 386.57 51.15 395.34C47.82 397.26 47.82 400.37 51.15 402.29C83.15 420.76 339.13 568.49 371.12 586.95C374.45 588.87 379.84 588.87 383.17 586.95" id="a6Aik1zwVV"></path><path d="M507.37 458.46C502.26 454.05 499.42 451.6 498.85 451.11C498.85 451.11 499.18 424.87 506.87 403.76C517.66 374.07 540.58 367.56 547.56 372.08C554.54 376.6 554.55 386.02 537.43 401.06C527.32 409.93 512.65 429.98 507.37 458.46" id="e7AZsxh6Nq"></path><path d="M509.65 448.59C503.43 445 499.98 443.01 499.29 442.61C500.01 433.14 501.91 417.38 506.87 403.76C515.66 379.59 532.48 370.78 542.19 370.78C544.41 370.78 546.26 371.24 547.56 372.08C550.28 373.84 551.94 376.35 551.95 379.64C551.95 384.8 547.88 391.88 537.43 401.06C528.54 408.87 516.1 425.34 509.65 448.59" id="c2hZFV98jg"></path><path d="M506.26 445.62C506.32 445.62 506.35 445.63 506.36 445.63C506.74 445.65 507.07 445.36 507.09 444.97C508.71 415.52 526.36 386.35 541.79 376.21C542.11 376 542.2 375.57 541.98 375.25C541.77 374.93 541.34 374.84 541.02 375.05C525.31 385.37 507.35 415.01 505.7 444.9C505.68 445.25 505.93 445.55 506.26 445.62" id="b1sYSEo3Ak"></path><path d="M532.48 479.01C533.82 480.17 537.32 478.88 538.67 478.31C540.98 477.33 543.02 475.71 544.55 473.73C546.33 471.41 547.19 468.73 547.34 465.82C547.42 464.31 547.29 462.8 547.16 461.29C547.02 459.82 546.9 458.34 546.77 456.86C546.64 455.4 546.52 453.89 546.97 452.5C547.9 449.7 550.84 448.19 553.5 446.9C556.44 445.48 559.6 443.47 560.26 440.01C560.77 437.33 559.87 434.59 558.62 432.17C557.38 429.75 555.77 427.52 554.71 425.02C553.94 423.22 553.47 421.19 554.01 419.31C554.35 418.14 555.07 417.12 555.84 416.18C557.5 414.16 559.51 412.42 560.82 410.16C562.14 407.9 562.6 404.87 561.05 402.77C559.78 401.05 557.51 400.4 555.39 400.13C553.42 399.88 551.36 400.39 549.47 401.01C543.39 402.99 538.99 408.88 532.71 410.1C530.28 410.56 527.78 410.28 525.32 410.45C522.86 410.61 520.24 411.34 518.73 413.3C515.76 417.15 518.7 423.19 516.32 427.43C514.2 431.19 510.01 431.96 507.11 435.15C505.85 436.55 505.27 438.33 505.07 440.21C504.72 443.37 504.73 445.75 505.55 449.51C506.23 452.62 508.87 458.46 508.87 458.46C508.94 458.57 532.27 478.83 532.48 479.01" id="e17v61ZMtB"></path><path d="M518.53 467.68C518.54 467.69 518.54 467.69 518.55 467.69C518.94 467.75 519.29 467.48 519.35 467.11C523.51 439.74 542.13 412.27 553.12 405.37C553.45 405.17 553.55 404.74 553.34 404.41C553.14 404.09 552.71 403.99 552.38 404.19C541.17 411.23 522.19 439.15 517.97 466.9C517.92 467.27 518.16 467.61 518.53 467.68" id="dmf0zEzua"></path><path d="M528.84 436.41C528.96 436.41 529.03 436.42 529.05 436.42C538.29 435.42 549.25 437.06 549.36 437.08C549.74 437.13 550.1 436.87 550.16 436.49C550.21 436.11 549.99 435.76 549.57 435.7C549.46 435.68 538.33 434.02 528.9 435.03C528.52 435.07 528.24 435.42 528.28 435.8C528.31 436.11 528.55 436.35 528.84 436.41" id="bZFuOZNW5"></path><path d="M64.93 385.88C72.07 381.76 76.04 379.47 76.83 379.01C76.83 379.01 79.74 353.53 77.8 333.8C75.08 306.07 57.17 272.71 35.81 280.55C14.45 288.38 45.61 316.62 52.54 340.14C59.48 363.65 64.93 385.88 64.93 385.88" id="eMUyWHn5Y"></path><path d="M64.93 385.88C64.93 385.88 64.23 383.01 63 378.24C63.51 378.53 66.03 379.99 70.58 382.61L64.93 385.88M60.77 369.68C58.6 361.45 55.72 350.93 52.54 340.14C47.33 322.46 28.44 302.12 28.44 289.78C28.44 285.7 30.5 282.49 35.81 280.55C37.97 279.76 40.09 279.38 42.16 279.38C60.63 279.38 75.35 308.87 77.8 333.8C78.29 338.73 78.47 344.02 78.47 349.19C78.47 352.77 78.38 356.29 78.25 359.59C77.08 360.26 71.26 363.62 60.77 369.68" id="a6ZhFWbwd"></path><path d="M71.19 382.99C71.17 382.99 71.17 382.99 71.16 382.99C70.77 382.97 70.46 382.64 70.47 382.24C72.56 320.63 41.89 289.64 41.58 289.34C41.3 289.06 41.29 288.6 41.57 288.32C41.85 288.03 42.31 288.03 42.59 288.31C42.91 288.62 74.02 320.06 71.91 382.29C71.9 382.68 71.58 382.99 71.19 382.99" id="b2UNz0CTLy"></path><path d="M58.58 390.79C63.66 387.86 66.48 386.23 67.05 385.9C67.05 385.9 68.49 368.42 59.92 347.18C52.45 328.69 33.94 313.35 24.62 316.58C15.31 319.8 15.54 326.4 20.08 333.33C24.62 340.26 52.25 356.77 58.58 390.79" id="c1FLmtjnpH"></path><path d="M63.05 388.94C63.05 388.94 63.04 388.94 63.04 388.94C62.65 388.93 62.33 388.61 62.33 388.21C62.5 349.26 25.92 322.93 25.55 322.67C25.23 322.44 25.15 321.99 25.38 321.67C25.61 321.34 26.05 321.26 26.38 321.49C26.76 321.76 63.94 348.52 63.77 388.22C63.77 388.62 63.44 388.94 63.05 388.94" id="dw1kU8nuh"></path><path d="M500.69 457.07L490.95 462.69C413.19 507.55 369.99 532.48 361.35 537.46C361.01 537.65 360.67 537.83 360.31 537.98C358.17 538.86 355.78 538.86 353.64 537.98C353.28 537.83 352.92 537.65 352.58 537.46C336.18 527.99 254.15 480.63 106.5 395.39C99.36 391.27 95.39 388.98 94.6 388.52C94.14 388.26 93.76 387.96 93.48 387.65C92.25 386.3 92.63 384.57 94.6 383.43C108.52 375.39 219.95 311.06 233.87 303.02C235.64 302.01 237.47 301.28 239.28 301.52C239.73 301.58 240.16 301.7 240.61 301.88C240.83 301.96 241.07 302.07 241.29 302.2C267.23 317.18 474.75 437 500.69 451.97C502.65 453.1 502.65 455.94 500.69 457.07M534.1 463.43C534.04 463.3 533.97 463.18 533.88 463.06C533.86 463.04 533.8 462.97 533.68 462.82L533.46 462.55C533.31 462.41 533.23 462.33 533.21 462.32C532.96 462.09 532.64 461.87 532.29 461.66C501.26 443.75 253.04 300.44 222.01 282.52C219.18 280.89 214.57 280.89 211.73 282.52C196.52 291.31 74.82 361.56 59.61 370.35C59.39 370.48 59.18 370.6 59 370.73C58.98 370.75 58.81 370.88 58.79 370.9C58.42 371.21 58.14 371.52 57.93 371.86C57.92 371.89 57.8 372.09 57.78 372.12C57.71 372.25 57.65 372.38 57.62 372.52C57.61 372.55 57.55 372.8 57.54 372.83C57.5 373.01 57.48 373.17 57.48 373.35C57.49 373.38 57.51 373.67 57.51 373.71C57.54 373.84 57.57 373.97 57.62 374.11C57.66 374.24 57.72 374.38 57.78 374.49C58.11 375.15 58.72 375.76 59.61 376.28C90.64 394.19 338.86 537.5 369.88 555.42C370.76 555.92 371.83 556.26 372.95 556.46C373.61 556.58 374.33 556.62 375.03 556.63C375.72 556.63 376.42 556.58 377.09 556.47C377.33 556.44 377.55 556.4 377.76 556.34C378.41 556.19 379.04 555.98 379.62 555.71C379.81 555.62 379.99 555.52 380.17 555.42C395.38 546.63 517.08 476.38 532.29 467.59C534.23 466.46 534.84 464.86 534.1 463.43" id="bBga3LvYO"></path><path d="M59.01 370.74C56.44 372.55 54.47 376.21 54.46 379.26C54.46 379.94 54.46 385.37 54.46 386.05C54.46 389.35 56.74 393.33 59.6 394.98C90.62 412.89 338.83 556.19 369.85 574.1C370.93 574.73 372.24 575.1 373.63 575.25C374.08 575.31 374.53 575.34 375 575.34C375 575.34 375.01 575.34 375.02 575.34L375.02 556.64C375.02 556.64 375.02 556.63 375.02 556.63C374.32 556.63 373.62 556.57 372.95 556.46C371.82 556.27 370.76 555.92 369.88 555.41C338.85 537.5 90.63 394.19 59.6 376.28C56.99 374.77 56.78 372.38 59.01 370.74" id="j1rqAuYHj4"></path><path d="M451.92 499.9C446.95 497.04 438.55 497.04 433.57 499.9C432.29 500.65 431.34 501.51 430.82 502.42C429.17 505.27 432.19 507.42 433.57 508.23C438.55 511.1 446.95 511.1 451.92 508.23C453.19 507.48 454.14 506.62 454.67 505.72C456.32 502.86 453.29 500.71 451.92 499.9" id="b1k3M2IWAP"></path><path d="M148.12 334.49C149.5 333.69 149.5 332.39 148.12 331.58C146.73 330.78 144.48 330.78 143.09 331.58C141.7 332.39 141.7 333.69 143.09 334.49C144.48 335.29 146.73 335.29 148.12 334.49" id="f6TnfICSPU"></path><path d="M140.21 348.24C141.44 347.53 141.44 346.38 140.21 345.66C138.98 344.95 136.98 344.95 135.75 345.66C134.52 346.38 134.52 347.53 135.75 348.24C136.98 348.95 138.98 348.95 140.21 348.24" id="b1CvDAjfwb"></path><path d="M147.77 343.98C162.75 335.33 171.08 330.52 172.74 329.56C174.11 328.77 174.18 327.53 172.9 326.79C171.61 326.05 169.46 326.09 168.09 326.88C165.6 328.32 145.62 339.86 143.12 341.3C141.75 342.09 141.68 343.33 142.97 344.07C144.25 344.81 146.4 344.77 147.77 343.98" id="b8H4BdfV3"></path><path d="M532.96 462.12C535.1 463.77 534.86 466.11 532.29 467.59C517.08 476.38 395.38 546.64 380.16 555.42C378.75 556.24 376.88 556.65 375.02 556.64C375.02 558.51 375.02 573.47 375.02 575.34C376.89 575.33 378.73 574.92 380.15 574.09C395.36 565.31 517.06 495.07 532.27 486.29C535.11 484.66 537.41 480.67 537.42 477.38C537.42 476.7 537.44 471.25 537.44 470.57C537.42 467.56 535.49 463.96 532.96 462.12" id="f25savcdG"></path><path d="M132.17 423.42C133.64 424.26 134.83 426.24 134.83 427.83C134.83 428.6 134.55 429.13 134.1 429.38C133.78 429.56 132.57 430.28 132.23 430.47C131.75 430.74 131.07 430.68 130.32 430.25C126.86 428.25 99.18 412.28 95.72 410.28C94.26 409.43 93.07 407.45 93.07 405.86C93.07 405.13 93.32 404.61 93.74 404.35C94.07 404.14 95.33 403.41 95.66 403.23C96.14 402.96 96.82 403.01 97.58 403.45C99.89 404.78 111.42 411.43 132.17 423.42" id="a4p3xRA4X"></path><path d="M130.31 424.49C109.56 412.51 98.03 405.85 95.72 404.52C94.26 403.67 93.07 404.27 93.07 405.86C93.07 407.45 94.26 409.43 95.72 410.28C99.18 412.28 126.86 428.25 130.31 430.25C131.78 431.1 132.97 430.49 132.97 428.9C132.97 427.31 131.78 425.34 130.31 424.49" id="a7lc1YvBCz"></path><path d="M85.87 396.68C87.34 397.53 88.53 399.51 88.53 401.1C88.53 401.87 88.25 402.4 87.79 402.65C87.47 402.83 86.27 403.55 85.93 403.73C85.45 404 84.77 403.95 84.01 403.52C82.38 402.57 69.34 395.04 67.71 394.1C66.24 393.25 65.05 391.28 65.05 389.69C65.05 388.95 65.3 388.44 65.72 388.17C66.05 387.96 67.31 387.24 67.64 387.05C68.12 386.78 68.8 386.83 69.56 387.27C70.65 387.9 76.08 391.04 85.87 396.68" id="a5RuCjmAi"></path><path d="M84.01 397.76C74.23 392.11 68.79 388.97 67.71 388.34C66.24 387.49 65.05 388.1 65.05 389.69C65.05 391.28 66.24 393.25 67.71 394.1C69.34 395.04 82.38 402.57 84.01 403.52C85.48 404.36 86.67 403.76 86.67 402.17C86.67 400.58 85.48 398.6 84.01 397.76" id="aou2sPEap"></path><path d="M500.69 457L490.95 462.61C413.19 507.48 369.99 532.4 361.35 537.39C361.01 537.58 360.67 537.76 360.31 537.91C358.17 538.78 355.78 538.78 353.64 537.91C353.28 537.76 352.92 537.58 352.58 537.39C336.18 527.92 254.15 480.56 106.5 395.32C99.36 391.2 95.39 388.91 94.6 388.45C94.14 388.18 93.76 387.88 93.48 387.57C92.25 386.22 92.63 384.5 94.6 383.35C108.52 375.31 219.95 310.99 233.87 302.95C235.64 301.94 237.47 301.21 239.28 301.44C239.73 301.5 240.16 301.62 240.61 301.8C240.83 301.89 241.07 301.99 241.29 302.13C267.23 317.11 474.75 436.92 500.69 451.9C502.65 453.03 502.65 455.87 500.69 457" id="a619xAJb04"></path><path d="M356.97 538.57C355.84 538.57 354.71 538.35 353.64 537.91C353.28 537.76 352.92 537.58 352.58 537.39C336.18 527.92 254.15 480.56 106.5 395.32C99.36 391.2 95.39 388.91 94.6 388.45C94.14 388.18 93.76 387.88 93.48 387.57C93.02 387.07 92.79 386.51 92.78 385.95C92.78 385.93 92.78 385.92 92.78 385.91C92.78 384.99 93.39 384.06 94.6 383.35C98.88 380.88 120.3 368.51 158.85 346.26L158.85 362.75L196 384.2L158.85 405.64L275.18 473L391.51 405.64L354.37 384.2L368.9 375.81C447.97 421.46 491.9 446.83 500.69 451.9C501.67 452.46 502.16 453.46 502.16 454.45C502.16 454.46 502.16 454.47 502.16 454.48C502.15 455.46 501.66 456.44 500.69 457C500.04 457.37 496.79 459.24 490.95 462.61C413.19 507.48 369.99 532.4 361.35 537.39C361.01 537.58 360.67 537.76 360.31 537.91C359.24 538.35 358.11 538.57 356.97 538.57M368.95 503.55C369.54 503.89 370.31 504.07 371.09 504.07C371.18 504.07 371.27 504.06 371.37 504.06C371.98 504.03 372.58 503.89 373.08 503.64C373.08 503.64 373.08 503.64 373.08 503.64C373.08 503.64 373.08 503.63 373.09 503.63C373.14 503.61 373.19 503.58 373.24 503.55C373.24 503.55 373.24 503.55 373.24 503.55C418.98 477.14 444.39 462.47 449.48 459.54C450.66 458.85 451.62 457.19 451.62 455.82C451.62 455.76 451.62 455.48 451.62 454.96L451.62 454.96L451.62 454.96C451.62 454.96 451.62 454.96 451.62 454.96C451.62 453.59 450.66 451.93 449.48 451.25C444.87 448.59 408.04 427.32 403.44 424.66C402.84 424.32 402.07 424.15 401.29 424.15C400.51 424.15 399.74 424.32 399.14 424.66C391.52 429.07 330.53 464.28 322.9 468.68C321.72 469.37 320.76 471.03 320.76 472.4C320.76 472.46 320.76 472.74 320.76 473.25L320.76 473.25L320.76 473.25C320.76 473.25 320.76 473.25 320.76 473.25C320.76 474.62 321.72 476.29 322.9 476.97C325.97 478.74 341.32 487.6 368.95 503.55L368.95 503.55" id="c7tBRuliT"></path><path d="M122.65 377.07L120.95 376.08L121.46 377.76L122.65 377.07ZM124.01 377.92L123.81 377.86L123.13 377.47L121.48 378.42L121.2 378.41L120.95 378.27L120.84 378.19L120.79 378.09L120.09 375.66L120.08 375.57L120.17 375.49L120.4 375.35L120.61 375.3L120.82 375.37L123.21 376.75L123.57 376.54L123.77 376.48L123.98 376.55L124.14 376.65L124.25 376.76L124.15 376.87L123.79 377.08L124.48 377.48L124.59 377.59L124.48 377.71L124.2 377.87L124.01 377.92" id="gPPmLlICC"></path><path d="M125.55 376.56C124.86 376.53 124.18 376.32 123.49 375.92C122.81 375.53 122.45 375.14 122.4 374.73C122.36 374.34 122.63 373.96 123.21 373.63C123.45 373.49 123.69 373.38 123.96 373.29C124.22 373.21 124.46 373.16 124.7 373.14C124.71 373.14 124.75 373.15 124.83 373.16L124.88 373.21L125.03 373.47L125.02 373.54C124.96 373.55 124.93 373.56 124.92 373.56C124.54 373.61 124.18 373.73 123.85 373.91C123.46 374.14 123.28 374.4 123.31 374.67C123.34 374.95 123.62 375.24 124.15 375.55C124.67 375.85 125.18 376.02 125.65 376.04C126.12 376.06 126.55 375.96 126.93 375.74C127.07 375.66 127.19 375.57 127.3 375.48C127.31 375.47 127.38 375.38 127.51 375.23L126.4 374.59L125.71 374.99L125.52 375.04L125.31 374.97L125.15 374.88L125.04 374.77L125.14 374.65L126.23 374.02L126.46 373.96L126.71 374.05L128.29 374.96L128.41 375.05C128.42 375.1 128.42 375.13 128.42 375.14C128.34 375.45 128.02 375.77 127.47 376.09C126.88 376.43 126.24 376.58 125.55 376.56" id="h6Xiab3XJ"></path><path d="M139.18 368.4C139.71 368.7 139.71 369.2 139.18 369.5C138.65 369.81 137.8 369.81 137.27 369.5C136.74 369.2 136.74 368.7 137.27 368.4C137.8 368.09 138.65 368.09 139.18 368.4" id="der7qVqGt"></path><path d="M135.7 367.5C134.74 368.05 134.45 368.85 134.81 369.55C134.89 369.69 135.13 369.78 135.39 369.76C135.39 369.76 135.39 369.76 135.39 369.76C135.72 369.74 135.93 369.56 135.83 369.38C135.57 368.88 135.78 368.32 136.45 367.93C137.13 367.54 138.11 367.42 138.96 367.57C139.27 367.63 139.6 367.5 139.63 367.31C139.63 367.31 139.64 367.31 139.64 367.31C139.67 367.17 139.51 367.03 139.26 366.98C138.05 366.77 136.67 366.94 135.7 367.5" id="fdd7REhF6"></path><path d="M134.17 366.61C132.74 367.44 132.23 368.6 132.64 369.66C132.7 369.82 132.94 369.93 133.22 369.91C133.22 369.91 133.23 369.91 133.23 369.91C133.54 369.89 133.75 369.72 133.68 369.54C133.34 368.67 133.76 367.72 134.93 367.05C136.09 366.37 137.74 366.13 139.25 366.32C139.56 366.36 139.86 366.24 139.89 366.06C139.93 365.9 139.74 365.76 139.47 365.72C137.62 365.49 135.61 365.78 134.17 366.61" id="b2liQWVdzd"></path><path d="M162.35 352.98L162.19 352.93L162.15 352.82L162.44 351.41L162.47 351.31L162.55 351.22L163.04 350.93L163.22 350.89L163.38 350.93L167.47 353.29L167.54 353.39L167.47 353.49L166.96 353.78L166.79 353.82L166.62 353.78L163.49 351.98L163.3 352.9L163.21 352.99L163.02 353.02L162.35 352.98" id="c2j3XtZYt"></path><path d="M165.55 351.13L165.39 351.08L165.34 350.98L165.64 349.56L165.67 349.46L165.75 349.37L166.24 349.09L166.41 349.05L166.58 349.09L170.67 351.44L170.74 351.54L170.67 351.64L170.16 351.94L169.99 351.98L169.82 351.94L166.69 350.13L166.5 351.06L166.41 351.15L166.22 351.18L165.55 351.13" id="c2dfYPi8lD"></path><path d="M171.79 349.88L171.96 349.84L172.13 349.88L172.75 350.24L172.82 350.34L172.75 350.44L172.16 350.78L171.99 350.82L171.82 350.78L171.2 350.42L171.13 350.32L171.2 350.22L171.79 349.88M169.57 348.61L169.75 348.57L169.92 348.61L170.54 348.97L170.61 349.06L170.54 349.16L169.95 349.5L169.78 349.54L169.61 349.5L168.99 349.14L168.92 349.05L168.99 348.95L169.57 348.61" id="b6x2gdlx0"></path><path d="M174.23 347.59L172.87 346.81L173.15 348.22L174.23 347.59M176.13 348.49L175.96 348.53L175.78 348.49L175.02 348.05L173.06 349.18L172.89 349.22L172.72 349.18L172.27 348.92L172.15 348.81L172.11 348.67L171.63 346.16L171.73 345.92L172.21 345.64L172.38 345.6L172.55 345.64L175.08 347.1L175.63 346.79L175.8 346.75L175.97 346.79L176.42 347.05L176.49 347.14L176.42 347.24L175.87 347.56L176.64 348L176.71 348.1L176.64 348.2L176.13 348.49" id="a6gkc6kkGD"></path><path d="M174.41 344.57L174.34 344.47L174.41 344.37L176.79 343L176.96 342.96L177.13 343L177.58 343.26L177.65 343.36L177.58 343.45L175.8 344.48L176.54 344.99L176.8 344.74C176.96 344.64 177.04 344.59 177.06 344.58C177.3 344.44 177.55 344.33 177.81 344.25C178.08 344.17 178.35 344.13 178.62 344.11C178.89 344.1 179.16 344.12 179.43 344.18C179.69 344.23 179.94 344.33 180.18 344.47C180.45 344.62 180.63 344.78 180.74 344.94C180.85 345.1 180.89 345.26 180.86 345.42C180.83 345.58 180.75 345.73 180.6 345.88C180.46 346.03 180.27 346.17 180.04 346.3C179.75 346.47 179.47 346.59 179.19 346.67C178.92 346.76 178.65 346.8 178.4 346.82C178.15 346.83 177.91 346.81 177.69 346.76C177.47 346.72 177.28 346.65 177.11 346.56C177.1 346.55 177.07 346.52 177.03 346.46L177.11 346.36L177.62 346.07L177.77 346.02C177.88 346.04 177.94 346.05 177.95 346.05C178.07 346.09 178.19 346.11 178.31 346.12C178.33 346.11 178.44 346.11 178.64 346.09L178.96 345.99C179.14 345.9 179.23 345.85 179.25 345.84C179.5 345.7 179.62 345.56 179.64 345.4C179.66 345.23 179.55 345.09 179.32 344.96C179.13 344.85 178.9 344.8 178.63 344.81C178.35 344.82 178.1 344.9 177.85 345.03C177.72 345.11 177.63 345.17 177.58 345.22C177.57 345.23 177.53 345.28 177.46 345.37L177.41 345.48L177.29 345.58L176.71 345.91L176.54 345.95L176.37 345.91L174.41 344.57" id="ehwXF71wE"></path><path d="M106.33 388.72L105.01 387.96L106.77 386.95L108.08 387.71L106.33 388.72" id="dEJUyLQL9"></path><path d="M108.96 387.2L106.33 385.68L108.09 384.66L110.72 386.19L108.96 387.2" id="a90dHGh5I"></path><path d="M111.6 385.68L107.65 383.4L109.4 382.38L113.36 384.66L111.6 385.68" id="ajeq6sCDY"></path><path d="M114.24 384.16L108.96 381.11L110.72 380.1L115.99 383.14L114.24 384.16" id="a3CzXwFGRa"></path><path d="M229.51 316.87C229.36 316.86 229.18 316.8 229.02 316.71C228.78 316.57 226.86 315.46 226.62 315.32C226.2 315.08 226.12 314.72 226.43 314.54C226.87 314.29 229.06 313.03 233 310.76L233.27 310.68C233.37 310.67 233.43 310.67 233.44 310.67C233.59 310.69 233.78 310.75 233.93 310.84C234.17 310.98 236.09 312.08 236.33 312.22C236.75 312.46 236.84 312.82 236.52 313C235.86 313.38 230.61 316.4 229.95 316.78C229.83 316.85 229.67 316.88 229.51 316.87M233.38 310.43C232.95 310.39 232.58 310.45 232.34 310.59C231.69 310.97 226.43 313.99 225.77 314.37C225.34 314.62 225.45 315.07 226.02 315.39C226.26 315.53 228.18 316.64 228.42 316.77C228.73 316.96 229.14 317.08 229.57 317.11C229.76 317.13 229.93 317.12 230.09 317.11C230.3 317.08 230.48 317.03 230.61 316.96C231.27 316.58 236.52 313.55 237.18 313.17C237.61 312.93 237.5 312.48 236.93 312.15C236.69 312.01 234.77 310.91 234.53 310.77C234.22 310.59 233.81 310.47 233.38 310.43" id="c1kqanrnc1"></path><path d="M228.09 314.06L230.93 315.7L229.89 316.29L229.54 316.33C228.28 315.6 227.58 315.19 227.44 315.11C227.13 314.93 227.07 314.66 227.29 314.53C227.34 314.5 227.61 314.34 228.09 314.06" id="aW5Z2EKV4"></path><path d="M228.58 313.79L229.81 313.08L232.64 314.72L231.41 315.42L228.58 313.79" id="a3QO6iqTNh"></path><path d="M230.29 312.81L231.52 312.09L234.36 313.74L233.13 314.45L230.29 312.81" id="b5HAzswR8I"></path><path d="M233.43 311.22C234.65 311.93 235.33 312.32 235.47 312.4C235.84 312.61 235.76 312.93 235.26 313.22C235.23 313.24 235.09 313.32 234.84 313.46L232.01 311.82L232.99 311.26L233.43 311.22" id="e16YHUY77V"></path><path d="M234.8 310.63C234.97 310.53 235.52 310.67 236.01 310.96C236.06 310.98 236.41 311.19 236.46 311.21C236.95 311.5 237.21 311.82 237.04 311.93C237.02 311.95 236.91 312.02 236.72 312.14C235.37 311.35 234.62 310.91 234.47 310.83C234.47 310.83 234.62 310.74 234.8 310.63" id="b2Tl3HHOCA"></path><path d="M216.64 321.48L221.74 317.06L224.42 320.88L220.9 319.92L216.64 321.48" id="hrE0gBDb4"></path><path d="M275.18 473L158.85 405.64L196 384.2L275.18 429.91L275.18 429.91L275.18 429.91L275.18 429.91L354.37 384.2L391.51 405.64L275.18 473" id="a2Mpo3XWV4"></path><path d="M320.76 472.4C320.76 472.91 320.76 473.2 320.76 473.25C320.76 474.62 321.72 476.29 322.9 476.97C327.51 479.63 364.34 500.9 368.95 503.55C370.13 504.24 372.05 504.24 373.24 503.55C380.86 499.15 441.85 463.94 449.48 459.54C450.66 458.85 451.62 457.19 451.62 455.82C451.62 455.73 451.62 455.05 451.62 454.96C451.62 453.59 450.66 451.93 449.48 451.25C444.87 448.59 408.04 427.32 403.44 424.66C402.25 423.98 400.33 423.98 399.14 424.66C391.52 429.07 330.53 464.28 322.9 468.68C321.72 469.37 320.76 471.03 320.76 472.4" id="d2l7CH9uQQ"></path><path d="M320.76 472.4C320.76 472.91 320.76 473.2 320.76 473.25C320.76 474.62 321.72 476.29 322.9 476.97C327.51 479.63 364.34 500.9 368.95 503.55C370.13 504.24 372.05 504.24 373.24 503.55C380.86 499.15 441.85 463.94 449.48 459.54C450.66 458.85 451.62 457.19 451.62 455.82C451.62 455.73 451.62 455.05 451.62 454.96C451.62 453.59 450.66 451.93 449.48 451.25C444.87 448.59 408.04 427.32 403.44 424.66C402.25 423.98 400.33 423.98 399.14 424.66C391.52 429.07 330.53 464.28 322.9 468.68C321.72 469.37 320.76 471.03 320.76 472.4" id="grX5Pfans"></path><path d="M371.37 504.06C371.98 504.03 372.58 503.89 373.08 503.64C372.58 503.89 371.98 504.03 371.37 504.06M373.08 503.64C373.08 503.64 373.08 503.63 373.09 503.63C373.08 503.63 373.08 503.64 373.08 503.64" id="e1BWcBcTsP"></path><path d="M371.1 504.07C371.09 504.07 371.09 504.07 371.09 504.07C371.09 504.07 371.09 504.07 371.09 504.07L371.09 498.25C371.09 498.25 371.09 498.25 371.09 498.25C371.87 498.25 372.65 498.08 373.24 497.74C377.18 495.46 396.9 484.08 432.4 463.58L436.83 461.03C444.42 456.65 448.63 454.21 449.48 453.73C450.07 453.38 450.37 452.93 450.37 452.48C450.37 452.05 450.09 451.62 449.55 451.29C450.7 451.99 451.62 453.62 451.62 454.96C451.62 455.05 451.62 455.73 451.62 455.82C451.62 457.19 450.66 458.85 449.48 459.54C444.39 462.47 418.98 477.14 373.24 503.55C373.24 503.55 373.24 503.55 373.24 503.55C373.19 503.58 373.14 503.61 373.09 503.63C373.08 503.63 373.08 503.64 373.08 503.64C373.08 503.64 373.08 503.64 373.08 503.64C372.58 503.89 371.98 504.03 371.37 504.06C371.28 504.06 371.18 504.07 371.1 504.07" id="fdSgARr5y"></path><path d="M371.09 504.07L371.09 504.07L371.09 504.07C371.09 504.07 371.09 504.07 371.09 504.07C370.31 504.07 369.54 503.89 368.95 503.55C368.95 503.55 368.95 503.55 368.95 503.55C341.32 487.6 325.97 478.74 322.9 476.97C321.72 476.29 320.76 474.62 320.76 473.25C320.76 473.17 320.76 472.49 320.76 472.4C320.76 471.03 321.72 469.37 322.9 468.68C322.9 468.68 322.9 468.68 322.9 468.68C322.31 469.02 322.02 469.47 322.02 469.92C322.02 470.36 322.3 470.8 322.88 471.14C322.88 471.14 322.88 471.14 322.88 471.14C322.88 471.14 322.88 471.15 322.89 471.15C322.89 471.15 322.89 471.15 322.89 471.15C322.9 471.15 322.9 471.16 322.9 471.16C322.9 471.16 322.9 471.16 322.9 471.16L361.57 493.48L365.19 495.58C367.44 496.88 368.69 497.6 368.95 497.74C369.54 498.08 370.31 498.25 371.09 498.25C371.09 498.25 371.09 498.25 371.09 498.25L371.09 504.07" id="b1AUbDZ0kD"></path><path d="M361.57 493.48C338.37 480.09 325.48 472.65 322.9 471.16C321.72 470.48 321.72 469.37 322.9 468.68C330.53 464.28 391.52 429.07 399.14 424.66C400.33 423.98 402.25 423.98 403.44 424.66C408.04 427.32 444.87 448.59 449.48 451.25C450.66 451.93 450.66 453.04 449.48 453.73C448.63 454.21 444.42 456.65 436.83 461.03L432.4 463.58C396.9 484.08 377.18 495.46 373.24 497.74C372.05 498.43 370.13 498.43 368.95 497.74C368.69 497.6 367.44 496.88 365.19 495.58L361.57 493.48" id="e6gDhgyGf"></path><path d="M371.09 498.25C370.31 498.25 369.54 498.08 368.95 497.74C368.69 497.6 367.44 496.88 365.19 495.58L361.57 493.48L322.9 471.16L378.78 467.92L371.09 498.25L371.09 498.25L371.09 498.25L371.09 498.25M371.09 498.25L380.93 467.79C386.65 467.46 389.83 467.28 390.47 467.24C391.67 467.17 392.77 466.68 393.62 465.92C393.62 465.92 393.62 465.92 393.62 465.92C393.63 465.92 393.63 465.92 393.63 465.91C394.42 465.2 395 464.25 395.24 463.14C395.33 462.69 395.81 460.45 396.67 456.4L449.48 451.25L397.14 454.21C400.92 436.48 403.02 426.63 403.44 424.66C402.85 424.33 402.08 424.17 401.31 424.17C401.24 424.17 401.17 424.17 401.11 424.17C401.11 424.17 401.11 424.17 401.11 424.17C400.39 424.2 399.69 424.35 399.14 424.66C396.6 426.13 383.9 433.47 361.02 446.67C338.15 459.88 325.45 467.21 322.9 468.68C322.36 469 322.08 469.4 322.03 469.82C322.74 469.76 326.26 469.47 332.6 468.94L338.54 468.45L391.22 464.11C349.71 467.53 326.65 469.44 322.03 469.82C321.98 470.29 322.26 470.78 322.88 471.14C322.3 470.8 322.02 470.36 322.02 469.92C322.02 469.47 322.31 469.02 322.9 468.68C330.53 464.28 391.52 429.07 399.14 424.66C399.74 424.32 400.51 424.15 401.29 424.15C402.07 424.15 402.84 424.32 403.44 424.66C408.04 427.32 444.87 448.59 449.48 451.25C450.07 451.59 450.37 452.04 450.37 452.48C450.37 452.93 450.07 453.38 449.48 453.73C448.63 454.21 444.42 456.65 436.83 461.03L432.4 463.58C396.9 484.08 377.18 495.46 373.24 497.74C372.65 498.08 371.87 498.25 371.09 498.25M322.9 471.16C322.9 471.16 322.9 471.15 322.89 471.15C322.9 471.15 322.9 471.16 322.9 471.16M322.89 471.15C322.88 471.15 322.88 471.14 322.88 471.14C322.88 471.14 322.88 471.15 322.89 471.15" id="dq4wiXxE4"></path><path d="M322.89 471.15C322.89 471.15 322.89 471.15 322.89 471.15C322.89 471.15 322.89 471.15 322.89 471.15M322.88 471.14C322.88 471.14 322.88 471.14 322.88 471.14C322.88 471.14 322.88 471.14 322.88 471.14" id="b2VNLlZPp3"></path><path d="M371.09 498.25L378.78 467.92L322.9 471.16C322.9 471.16 322.9 471.16 322.9 471.16C322.9 471.16 322.9 471.15 322.89 471.15C322.89 471.15 322.89 471.15 322.89 471.15C322.88 471.15 322.88 471.14 322.88 471.14C322.88 471.14 322.88 471.14 322.88 471.14C322.26 470.78 321.98 470.29 322.03 469.82C326.65 469.44 349.71 467.53 391.22 464.11L393.11 456.56L394.15 452.36C398.32 435.45 400.64 426.05 401.11 424.17C401.17 424.17 401.24 424.17 401.31 424.17C402.08 424.17 402.85 424.33 403.44 424.66C403.02 426.63 400.92 436.48 397.14 454.21L449.48 451.25L396.67 456.4C395.81 460.45 395.33 462.69 395.24 463.14C395 464.25 394.42 465.2 393.63 465.91C393.63 465.92 393.63 465.92 393.62 465.92C393.62 465.92 393.62 465.92 393.62 465.92C392.77 466.68 391.67 467.17 390.47 467.24C389.83 467.28 386.65 467.46 380.93 467.79L371.09 498.25L371.09 498.25" id="b17YRTO2H"></path><path d="M322.01 469.77C322.06 469.36 322.34 468.95 322.89 468.64C325.43 467.17 338.13 459.83 361.01 446.63C383.88 433.42 396.58 426.09 399.12 424.62C399.67 424.31 400.37 424.15 401.09 424.13C401.09 424.13 401.09 424.13 401.09 424.13C401.08 424.13 401.08 424.13 401.08 424.13C400.42 426.79 397.13 440.1 391.21 464.06L338.52 468.41L332.58 468.9L322.01 469.77" id="aea4yRcaE"></path><path d="M391.22 464.11L391.22 464.11C397.15 440.15 400.44 426.84 401.1 424.17C401.1 424.17 401.1 424.17 401.11 424.17C400.64 426.05 398.32 435.45 394.15 452.36L393.11 456.56L391.22 464.11" id="bHn4vXgUz"></path><path d="M392.57 418.36C397.39 415.58 405.19 415.58 410.01 418.36C414.82 421.14 414.82 425.65 410.01 428.43C405.19 431.21 397.39 431.21 392.57 428.43C387.76 425.65 387.76 421.14 392.57 418.36" id="h2OxWEs7Y6"></path><path d="M395.2 425.05C395.05 425.04 394.93 425 394.84 424.93C394.83 424.91 394.8 424.83 394.74 424.68L395.46 421.51C395.51 421.35 395.54 421.25 395.54 421.23C395.57 421.13 395.66 421.03 395.81 420.95C395.98 420.84 397.39 420.03 397.57 419.93C397.68 419.87 397.81 419.84 397.96 419.84C398.12 419.84 398.25 419.87 398.35 419.93C398.97 420.29 402.09 422.08 407.69 425.32L407.85 425.55L407.69 425.77C406.55 426.43 405.92 426.79 405.8 426.86C405.69 426.92 405.56 426.95 405.4 426.95C405.25 426.95 405.12 426.92 405.01 426.86C404.59 426.62 402.49 425.4 398.7 423.22L398.28 424.96C398.15 425.09 398.08 425.16 398.07 425.17C397.95 425.23 397.81 425.25 397.66 425.23C397.49 425.22 396.68 425.16 395.2 425.05" id="bpnBC1EPz"></path><path d="M161.16 364.08L275.18 298.25L389.21 364.08L275.18 429.91L161.16 364.08" id="a4RlGWtVMW"></path><path d="M275.18 298.25L275.18 185.68L158.85 252.84L256.18 309.22L275.18 298.25" id="d4L2AZyjuV"></path><path d="M275.18 185.68L275.18 298.25L294.19 309.22L391.52 252.84L275.18 185.68" id="a9bzVpJQaJ"></path><path d="M158.85 252.84L158.85 362.75L275.18 429.91L275.18 320.19L158.85 252.84" id="c5JivM98pn"></path><path d="M275.18 429.91L275.18 429.91L275.18 320.19L275.18 429.91" id="a2TKxakgbt"></path><path d="M275.18 429.49L158.85 362.33L158.85 252.42L275.18 319.77L275.18 429.49" id="f7BRLopnU"></path><path d="M275.18 320.19L275.18 429.91L391.51 362.75L391.51 252.84L275.18 320.19" id="gfpAkRiiv"></path><path d="M275.18 429.91L275.18 429.91L389.2 364.08L389.21 364.08L275.18 429.91" id="d9zvD6u3J"></path><path d="M275.18 429.91L275.18 320.19L275.18 320.19L275.18 429.91M275.18 429.91L361.97 379.81L277.48 425.72L275.18 320.19L391.51 252.84L391.51 362.75L389.2 364.08L275.18 429.91" id="a3zrLpjigk"></path><path d="M275.18 429.91L275.18 320.19L277.48 425.72L361.97 379.81L275.18 429.91" id="a1Qu9Mfu2p"></path><path d="M306.41 401.09C306.07 401.09 305.79 400.81 305.79 400.47C305.79 399.08 305.79 387.95 305.79 386.55C305.79 386.21 306.07 385.93 306.41 385.93C306.76 385.93 307.03 386.21 307.03 386.55C307.03 387.95 307.03 399.08 307.03 400.47C307.03 400.81 306.76 401.09 306.41 401.09" id="awbYsVMxn"></path><path d="M304.59 391.37C304.45 391.34 304.37 391.33 304.35 391.32C304.03 391.19 303.89 390.82 304.03 390.51C304.17 390.17 304.91 388.46 306.24 385.4C307.71 387.11 308.54 388.06 308.7 388.25C308.92 388.51 308.9 388.9 308.64 389.13C308.38 389.34 307.99 389.32 307.76 389.06C307.68 388.97 307.29 388.52 306.59 387.71C305.73 389.68 305.26 390.78 305.16 391C305.06 391.23 304.84 391.37 304.59 391.37" id="fW6Z5chM"></path><path d="M312.15 397.81C311.81 397.81 311.53 397.54 311.53 397.19C311.53 395.8 311.53 384.67 311.53 383.28C311.53 382.94 311.81 382.66 312.15 382.66C312.5 382.66 312.78 382.94 312.78 383.28C312.78 384.67 312.78 395.8 312.78 397.19C312.78 397.54 312.5 397.81 312.15 397.81" id="d1FayF0sWK"></path><path d="M310.34 388.1C310.19 388.07 310.11 388.05 310.09 388.05C309.78 387.91 309.63 387.55 309.77 387.23C309.92 386.89 310.65 385.19 311.98 382.13C313.46 383.84 314.28 384.78 314.44 384.97C314.67 385.23 314.64 385.63 314.38 385.85C314.12 386.07 313.73 386.05 313.5 385.79C313.43 385.7 313.04 385.25 312.33 384.44C311.48 386.41 311 387.51 310.91 387.73C310.81 387.96 310.58 388.1 310.34 388.1" id="a1P3Wlk4f9"></path><path d="M289.86 410.53C289.61 410.53 289.38 410.47 289.18 410.36C288.71 410.09 288.44 409.54 288.44 408.86C288.44 408.69 288.44 407.33 288.44 407.16C288.44 406.82 288.72 406.54 289.06 406.54C289.4 406.54 289.68 406.82 289.68 407.16C289.68 407.33 289.68 408.69 289.68 408.86C289.68 409.12 289.75 409.25 289.8 409.28C289.84 409.31 289.99 409.3 290.2 409.17C290.75 408.85 291.36 407.62 291.36 406.36C291.36 405.65 291.36 399.95 291.36 399.24C291.36 398.9 291.63 398.62 291.98 398.62C292.32 398.62 292.6 398.9 292.6 399.24C292.6 399.95 292.6 405.65 292.6 406.36C292.6 407.98 291.84 409.65 290.83 410.24C290.5 410.43 290.17 410.53 289.86 410.53" id="b6DWUXjh8U"></path><path d="M291.88 391.04C288.16 393.19 285.08 398.19 284.62 402.61C286.02 401.81 297.18 395.36 298.57 394.55C298.5 392.61 297.83 391.18 296.66 390.5C296.16 390.22 295.6 390.08 294.98 390.08C294.04 390.08 292.99 390.4 291.88 391.04ZM283.32 404.79C283.32 404.15 283.32 403.79 283.32 403.72C283.32 398.66 286.88 392.49 291.26 389.96C293.5 388.67 295.64 388.48 297.28 389.43C298.92 390.38 299.82 392.32 299.82 394.91C299.82 394.93 299.82 395.05 299.82 395.27L283.32 404.79" id="a1eUbpOH26"></path><path d="M275.18 185.68L158.85 252.84L275.18 320.19L391.51 252.84L275.18 185.68" id="dbryKToz6"></path><path d="M275.18 316.03L158.85 252.84L275.18 185.68L391.51 252.84L275.18 316.03" id="gbFNtCiuw"></path><path d="M275.18 320.19L275.18 320.19L256.21 309.21L158.85 252.84L275.18 316.03L391.51 252.84L275.18 320.19" id="c1ohFJQspj"></path><path d="M207.12 224.97L323.55 292.19L341.46 281.82L225.05 214.61L207.12 224.97" id="g5a38qkXRj"></path><path d="M341.46 281.81L341.46 304.59L339.3 303.36L337.05 307.24L334.8 305.92L332.55 309.85L330.29 308.52L328.04 312.41L325.79 311.12L323.54 315.01L323.54 292.19L341.46 281.81" id="aKK4NSGtk"></path><path d="M341.46 281.81L341.46 304.59L339.3 303.36L337.05 307.24L334.8 305.92L332.55 309.85L330.29 308.52L328.04 312.41L325.79 311.12L323.54 315.01L323.54 292.19L341.46 281.81" id="g1dyiSvcQ"></path><path d="M192.76 124.04L178.51 132.26L164.26 140.49C170.88 157.87 174.55 167.52 175.29 169.45C175.54 170.12 175.97 170.6 176.48 170.91C178.01 171.84 192.91 180.38 193.43 180.7C194.96 181.63 197.23 181 197.78 178.95C198.57 175.94 202.55 160.9 209.71 133.82L192.76 124.04" id="b1yZk0qilN"></path><path d="M194.95 181.12C194.94 181.12 194.93 181.12 194.91 181.12C194.93 181.12 194.94 181.12 194.95 181.12C196.08 181.12 197.2 180.49 197.67 179.28C197.2 180.49 196.08 181.12 194.95 181.12M194.91 181.12C194.91 181.12 194.91 181.12 194.9 181.12C194.91 181.12 194.91 181.12 194.91 181.12M194.9 181.12C194.89 181.12 194.89 181.12 194.89 181.12C194.89 181.12 194.89 181.12 194.9 181.12M194.88 181.12C194.88 181.12 194.88 181.12 194.88 181.12C194.88 181.12 194.88 181.12 194.88 181.12M194.87 181.11C194.87 181.11 194.87 181.11 194.86 181.11C194.87 181.11 194.87 181.11 194.87 181.11M194.86 181.11C194.85 181.11 194.85 181.11 194.85 181.11C194.85 181.11 194.85 181.11 194.86 181.11M194.84 181.11C194.84 181.11 194.84 181.11 194.84 181.11C194.84 181.11 194.84 181.11 194.84 181.11M194.83 181.11C194.83 181.11 194.83 181.11 194.83 181.11C194.83 181.11 194.83 181.11 194.83 181.11M193.41 180.69C192.66 180.24 178 171.84 176.48 170.91C175.97 170.6 175.54 170.12 175.29 169.45C174.98 168.63 173.41 164.52 170.59 157.12L181.43 150.86C187.91 167.89 191.51 177.35 192.24 179.24C192.48 179.89 192.91 180.37 193.41 180.69" id="c1nzRXNUhA"></path><path d="M181.21 149.86L195.46 141.63L209.71 133.4C202.55 160.47 198.57 175.52 197.78 178.52C197.05 181.26 193.24 181.46 192.24 178.82C191.5 176.89 187.82 167.23 181.21 149.86" id="j1BCJwcPsz"></path><path d="M280.19 42.95C280.19 37.26 278.22 33.25 275.02 31.34C271.97 29.52 260.96 23.24 257.92 21.49C254.66 19.61 250.16 19.89 245.18 22.76C235.46 28.37 186.88 56.42 99.43 106.91L99.43 178.66L116.38 188.42C203.83 137.93 252.41 109.88 262.13 104.27C272.11 98.51 280.19 84.5 280.19 72.98C280.19 70.98 280.19 60.97 280.19 42.95" id="b1X0LvTJDJ"></path><path d="M116.38 188.42L99.43 178.66L99.43 106.91C186.88 56.42 235.46 28.37 245.18 22.76C248.08 21.09 250.81 20.3 253.23 20.3C254.97 20.3 256.55 20.7 257.92 21.49C260.96 23.24 271.97 29.52 275.02 31.34C278.22 33.25 280.19 37.26 280.19 42.95C280.19 45.95 280.19 69.98 280.19 72.98C280.19 84.5 272.11 98.51 262.13 104.27C258.62 106.3 241.07 116.43 209.49 134.66L181.43 150.86L170.59 157.12L116.38 188.42" id="d8N9Hozzn"></path><path d="M262.13 104.27C272.11 98.51 280.19 84.5 280.19 72.98C280.19 69.98 280.19 45.95 280.19 42.95C280.19 31.43 272.11 26.76 262.13 32.52C252.41 38.13 203.83 66.18 116.38 116.67L116.38 188.42L262.13 104.27" id="cb8KOFtRD"></path><path d="M125.21 95.67L125.21 95.67L125.13 95.63L125.12 95.62L105.21 84.12L105.2 84.11L105.08 84.05C105.08 84.06 105.08 84.06 105.08 84.06C95.8 79.36 83.44 80.62 70.09 89.21C43.29 106.47 22.81 146.28 24.36 178.13C25.13 194.01 31.17 205.05 40.41 209.85C40.41 209.85 40.41 209.86 40.41 209.86L40.49 209.9L40.5 209.91L60.44 221.37L60.45 221.38L60.54 221.43C60.54 221.43 60.54 221.42 60.54 221.42C69.82 226.14 82.23 224.76 95.58 216.16C122.39 198.9 142.87 159.09 141.32 127.24C140.55 111.37 134.45 100.47 125.21 95.67" id="f6pZqmLU6"></path><path d="M59.76 221.01L40.51 209.9L40.49 209.91C40.44 209.87 40.41 209.85 40.41 209.85C31.17 205.04 25.13 193.99 24.36 178.14C23.67 163.93 27.37 148.15 34.03 133.51C36.02 134.67 51.93 143.96 53.92 145.13C47.23 159.77 43.55 175.55 44.24 189.75C44.99 205.29 50.85 216.05 59.76 221.01" id="a4Fer3Q4x"></path><path d="M95.58 216.16C122.39 198.9 142.87 159.09 141.32 127.24C139.77 95.4 116.79 83.57 89.98 100.84C63.17 118.1 42.7 157.91 44.24 189.76C45.79 221.6 68.78 233.43 95.58 216.16" id="e1xgWb933c"></path><path d="M95.23 120.84C88.76 124.57 83.5 134.68 83.5 143.36C83.5 147.67 84.82 150.9 87.12 152.23C88.94 153.28 91.35 153.05 93.89 151.58C100.36 147.84 105.62 137.74 105.62 129.05C105.62 124.75 104.3 121.51 102 120.19C101.25 119.75 100.4 119.54 99.48 119.54C98.17 119.54 96.73 119.97 95.23 120.84ZM89.63 155.55C88.26 155.55 86.96 155.22 85.79 154.54C82.64 152.72 80.83 148.65 80.83 143.36C80.83 133.83 86.69 122.69 93.89 118.53C97.3 116.56 100.66 116.33 103.34 117.88C106.48 119.69 108.29 123.77 108.29 129.05C108.29 138.59 102.43 149.73 95.23 153.89C93.31 154.99 91.41 155.55 89.63 155.55" id="bhHPqWb9P"></path><path d="M70.22 152.28C69.76 152.28 69.31 152.04 69.06 151.62C68.7 150.98 68.91 150.16 69.55 149.8C70.75 149.11 80.3 143.59 81.5 142.9C82.14 142.53 82.95 142.75 83.32 143.39C83.69 144.02 83.47 144.84 82.83 145.21C81.64 145.9 72.08 151.41 70.88 152.1C70.67 152.22 70.45 152.28 70.22 152.28" id="d22On0CVe7"></path><path d="M77.54 183.17C77.36 183.17 77.18 183.13 77.01 183.06C76.62 182.89 76.34 182.55 76.24 182.14C75.37 178.43 68.44 148.78 67.57 145.07C67.53 144.89 67.37 144.3 67.01 144.23C66.68 144.17 63.99 143.66 63.66 143.6C62.93 143.46 62.46 142.77 62.59 142.04C62.73 141.32 63.42 140.85 64.15 140.98C64.49 141.04 67.17 141.55 67.51 141.61C68.83 141.86 69.8 142.9 70.17 144.46C70.72 146.82 73.47 158.59 78.43 179.78C96.65 169.27 106.77 163.42 108.79 162.25C109.68 161.74 110.53 160.33 110.79 158.97C111.37 155.8 116.02 130.52 116.6 127.36C116.81 126.24 116.55 125.63 116.4 125.52C116.38 125.5 116.22 125.51 115.95 125.66C115.11 126.15 108.44 130 107.6 130.48C106.96 130.85 106.15 130.63 105.78 129.99C105.41 129.36 105.63 128.54 106.27 128.17C107.1 127.69 113.78 123.84 114.61 123.36C115.78 122.68 117 122.68 117.94 123.34C119.11 124.17 119.59 125.85 119.23 127.84C118.64 131 113.99 156.29 113.41 159.45C113.01 161.6 111.69 163.66 110.13 164.56C106.93 166.41 81.4 181.15 78.21 182.99C78 183.11 77.77 183.17 77.54 183.17" id="cAkHjPHgR"></path><path d="M75.87 194.73C75.27 194.73 74.7 194.58 74.18 194.28C72.89 193.53 72.14 191.94 72.14 189.91C72.14 186.5 74.18 182.66 76.78 181.16C79.98 179.31 105.59 164.52 108.79 162.68C109.43 162.31 110.25 162.53 110.61 163.16C110.98 163.8 110.76 164.62 110.13 164.99C106.93 166.83 81.32 181.62 78.12 183.47C76.32 184.5 74.81 187.45 74.81 189.91C74.81 191.13 75.17 191.77 75.52 191.97C75.91 192.19 76.48 191.94 76.78 191.76C80.21 189.78 107.62 173.96 111.04 171.98C111.68 171.61 112.5 171.83 112.86 172.47C113.23 173.11 113.01 173.92 112.38 174.29C108.95 176.27 81.54 192.09 78.12 194.07C77.36 194.51 76.59 194.73 75.87 194.73" id="a1xqDAHXPc"></path><path d="M82.65 196.51C80.84 197.55 79.31 200.53 79.31 203.01C79.31 204.24 79.68 204.9 80.03 205.1C80.42 205.32 81.01 205.06 81.32 204.88C83.13 203.84 84.66 200.86 84.66 198.38C84.66 197.15 84.29 196.49 83.94 196.29C83.83 196.23 83.7 196.2 83.57 196.2C83.23 196.2 82.87 196.38 82.65 196.51ZM80.39 207.86C79.79 207.86 79.22 207.71 78.69 207.41C77.39 206.65 76.64 205.05 76.64 203.01C76.64 199.58 78.69 195.71 81.32 194.2C82.71 193.39 84.12 193.32 85.27 193.99C86.58 194.74 87.32 196.34 87.32 198.38C87.32 201.81 85.27 205.68 82.65 207.19C81.88 207.63 81.12 207.86 80.39 207.86" id="cQNysdsED"></path><path d="M105.15 183.51C103.34 184.56 101.81 187.54 101.81 190.01C101.81 191.25 102.18 191.9 102.53 192.1C102.93 192.33 103.51 192.07 103.82 191.89C105.63 190.85 107.16 187.87 107.16 185.39C107.16 184.16 106.79 183.5 106.44 183.3C106.33 183.24 106.21 183.21 106.08 183.21C105.74 183.21 105.38 183.38 105.15 183.51ZM102.89 194.86C102.29 194.86 101.72 194.71 101.2 194.41C99.89 193.66 99.15 192.06 99.15 190.01C99.15 186.59 101.2 182.72 103.82 181.2C105.22 180.4 106.62 180.32 107.78 180.99C109.08 181.74 109.83 183.35 109.83 185.39C109.83 188.82 107.78 192.69 105.15 194.2C104.39 194.64 103.62 194.86 102.89 194.86" id="c2vBnl0v0G"></path><path d="M89.9 197.46C89.44 197.46 88.99 197.22 88.74 196.79C88.37 196.15 88.59 195.34 89.23 194.97C89.9 194.59 95.24 191.5 95.91 191.12C96.55 190.75 97.36 190.97 97.73 191.6C98.1 192.24 97.88 193.06 97.24 193.43C96.57 193.81 91.23 196.89 90.56 197.28C90.35 197.4 90.12 197.46 89.9 197.46" id="c1vEQ5A6kU"></path><path d="M92.58 145.01C92.25 145.01 91.93 144.89 91.68 144.66C91.28 144.29 88.09 141.37 87.69 141C87.15 140.5 87.11 139.66 87.61 139.12C88.11 138.57 88.95 138.54 89.5 139.03C89.67 139.2 90.55 140 92.13 141.45C96.42 132.06 98.8 126.84 99.28 125.8C99.58 125.13 100.37 124.83 101.04 125.14C101.71 125.44 102.01 126.23 101.7 126.9C100.91 128.64 94.59 142.5 93.79 144.23C93.62 144.62 93.26 144.9 92.85 144.98C92.83 144.98 92.74 144.99 92.58 145.01" id="bCpFoC4J2"></path><path d="M152.41 122.16C152.4 122.4 152.39 122.73 152.39 123.14C152.38 123.55 152.38 123.98 152.38 124.42C152.38 124.86 152.38 125.28 152.39 125.7C152.39 126.12 152.4 126.44 152.41 126.66C152.44 127.06 152.49 127.42 152.57 127.75C152.65 128.08 152.78 128.34 152.95 128.52C153.13 128.71 153.35 128.81 153.61 128.82C153.88 128.84 154.21 128.73 154.61 128.51C155 128.28 155.33 128.02 155.58 127.73C155.84 127.44 156.05 127.14 156.21 126.84C156.37 126.54 156.5 126.24 156.58 125.94C156.67 125.64 156.74 125.37 156.78 125.13C156.84 124.81 156.9 124.57 156.98 124.42C157.04 124.26 157.18 124.12 157.37 124.01C157.53 123.92 158.29 123.48 159.65 122.69C159.82 122.71 159.91 122.71 159.93 122.71C160 122.79 160.04 122.9 160.04 123.07C160.03 123.98 159.88 124.92 159.6 125.89C159.32 126.85 158.94 127.77 158.45 128.64C157.97 129.51 157.39 130.31 156.74 131.04C156.08 131.76 155.37 132.35 154.61 132.79C153.77 133.28 153.02 133.51 152.37 133.51C151.71 133.5 151.16 133.3 150.69 132.91C150.22 132.52 149.87 131.95 149.62 131.21C149.37 130.47 149.23 129.62 149.19 128.65C149.17 127.94 149.16 127.16 149.16 126.32C149.16 125.48 149.17 124.67 149.19 123.89C149.21 122.89 149.35 121.87 149.61 120.84C149.87 119.81 150.22 118.83 150.68 117.91C151.14 116.98 151.7 116.14 152.36 115.37C153.02 114.6 153.77 113.98 154.61 113.5C155.37 113.05 156.08 112.82 156.74 112.79C157.39 112.76 157.97 112.9 158.45 113.2C158.94 113.51 159.32 113.99 159.6 114.63C159.88 115.28 160.03 116.05 160.04 116.95C160.04 117.11 160 117.27 159.93 117.43C159.85 117.6 159.76 117.7 159.65 117.76C159.43 117.9 157.6 118.95 157.37 119.08C157.18 119.2 157.04 119.21 156.98 119.14C156.9 119.06 156.84 118.9 156.78 118.65C156.74 118.46 156.67 118.26 156.58 118.06C156.5 117.86 156.37 117.71 156.21 117.6C156.05 117.49 155.84 117.43 155.58 117.44C155.33 117.44 155 117.56 154.61 117.78C154.21 118.01 153.88 118.29 153.61 118.61C153.35 118.94 153.13 119.29 152.95 119.68C152.78 120.06 152.65 120.47 152.57 120.89C152.49 121.31 152.44 121.73 152.41 122.16" id="e2kqK63mN"></path><path d="M168.41 117.07C168.42 116.67 168.43 116.26 168.43 115.85C168.43 115.44 168.42 115.05 168.41 114.67C168.4 114.29 168.39 113.96 168.37 113.66C168.35 113.23 168.29 112.85 168.19 112.53C168.09 112.21 167.95 111.97 167.78 111.8C167.59 111.62 167.37 111.53 167.1 111.53C166.84 111.52 166.52 111.62 166.16 111.83C165.8 112.03 165.49 112.29 165.22 112.61C164.96 112.93 164.73 113.27 164.55 113.65C164.37 114.04 164.23 114.44 164.14 114.87C164.04 115.31 163.98 115.75 163.95 116.21C163.93 116.53 163.92 116.88 163.91 117.27C163.9 117.66 163.9 118.06 163.9 118.47C163.9 118.88 163.9 119.28 163.91 119.67C163.92 120.06 163.93 120.41 163.95 120.71C164 121.58 164.2 122.21 164.55 122.59C164.91 122.98 165.44 122.96 166.16 122.55C166.88 122.13 167.42 121.53 167.76 120.74C168.11 119.95 168.32 119.09 168.37 118.16C168.39 117.83 168.4 117.47 168.41 117.07ZM160.73 117.94C160.77 116.92 160.91 115.89 161.16 114.86C161.41 113.84 161.76 112.86 162.22 111.94C162.68 111.03 163.24 110.19 163.89 109.43C164.55 108.66 165.31 108.03 166.16 107.54C167.01 107.05 167.76 106.81 168.43 106.81C169.09 106.81 169.65 107.01 170.11 107.39C170.57 107.78 170.92 108.34 171.17 109.08C171.42 109.83 171.56 110.69 171.6 111.67C171.62 112.42 171.63 113.22 171.63 114.06C171.63 114.9 171.62 115.69 171.6 116.44C171.56 117.46 171.42 118.48 171.17 119.51C170.92 120.54 170.57 121.52 170.11 122.44C169.65 123.37 169.09 124.21 168.43 124.97C167.76 125.72 167.01 126.35 166.16 126.83C165.31 127.33 164.55 127.58 163.89 127.58C163.24 127.59 162.68 127.39 162.22 126.99C161.76 126.6 161.41 126.03 161.16 125.29C160.91 124.55 160.77 123.69 160.73 122.71C160.71 121.99 160.7 121.21 160.7 120.37C160.7 119.53 160.71 118.72 160.73 117.94" id="bP2HZgCYc"></path><path d="M181.85 118.8C181.65 118.91 181.49 118.92 181.37 118.83C181.25 118.74 181.17 118.66 181.14 118.59C180.87 118.13 179.54 115.84 177.15 111.72C177.15 117.16 177.15 120.18 177.15 120.78C177.15 120.98 177.11 121.18 177.01 121.37C176.92 121.57 176.81 121.71 176.68 121.78C176.45 121.91 174.63 122.96 174.4 123.09C174.27 123.17 174.16 123.16 174.07 123.07C173.98 122.98 173.93 122.84 173.93 122.64C173.93 120.91 173.93 107.06 173.93 105.33C173.93 105.13 173.98 104.94 174.07 104.74C174.16 104.54 174.27 104.41 174.4 104.33C174.58 104.23 176.03 103.39 176.21 103.29C176.41 103.18 176.57 103.16 176.69 103.25C176.81 103.35 176.89 103.43 176.93 103.5C177.19 103.95 178.52 106.24 180.91 110.36C180.91 104.92 180.91 101.9 180.91 101.3C180.91 101.1 180.96 100.91 181.05 100.71C181.14 100.51 181.25 100.38 181.38 100.31C181.61 100.17 183.43 99.12 183.66 98.99C183.79 98.92 183.9 98.92 183.99 99.01C184.09 99.1 184.13 99.25 184.13 99.44C184.13 101.17 184.13 115.02 184.13 116.75C184.13 116.95 184.09 117.15 183.99 117.34C183.9 117.54 183.79 117.68 183.66 117.75C183.54 117.82 182.94 118.17 181.85 118.8" id="h20ISJZ6vR"></path><path d="M194.99 93.79C195.12 93.72 195.23 93.73 195.32 93.82C195.42 93.91 195.46 94.05 195.46 94.25C195.46 94.53 195.46 96.8 195.46 97.08C195.46 97.28 195.42 97.48 195.32 97.67C195.23 97.87 195.12 98.01 194.99 98.08C194.64 98.28 192.91 99.28 189.79 101.09L189.79 104.76C192.7 103.07 194.32 102.14 194.64 101.95C194.77 101.88 194.88 101.89 194.97 101.98C195.07 102.07 195.11 102.21 195.11 102.4C195.11 102.69 195.11 104.96 195.11 105.25C195.11 105.44 195.07 105.64 194.97 105.83C194.88 106.03 194.77 106.17 194.64 106.24C194.32 106.43 192.7 107.36 189.79 109.04C189.79 112.52 189.79 114.45 189.79 114.83C189.79 115.03 189.74 115.23 189.65 115.42C189.55 115.62 189.44 115.75 189.32 115.83C189.09 115.96 187.26 117.01 187.04 117.15C186.91 117.22 186.8 117.21 186.7 117.12C186.61 117.04 186.57 116.89 186.57 116.69C186.57 114.96 186.57 101.11 186.57 99.38C186.57 99.18 186.61 98.99 186.7 98.79C186.8 98.59 186.91 98.46 187.04 98.38C187.57 98.08 190.22 96.55 194.99 93.79" id="a4UwAsl06"></path><path d="M198.75 110.39C198.63 110.47 198.52 110.46 198.42 110.37C198.33 110.28 198.28 110.14 198.28 109.94C198.28 108.21 198.28 94.36 198.28 92.63C198.28 92.43 198.33 92.24 198.42 92.04C198.52 91.84 198.63 91.71 198.75 91.63C198.98 91.5 200.81 90.45 201.03 90.32C201.16 90.24 201.27 90.25 201.37 90.34C201.46 90.43 201.5 90.57 201.5 90.77C201.5 92.5 201.5 106.35 201.5 108.08C201.5 108.28 201.46 108.48 201.37 108.67C201.27 108.87 201.16 109 201.03 109.08C200.88 109.16 200.12 109.6 198.75 110.39" id="a3wbYfJCGc"></path><path d="M208.04 94.4C209.22 93.72 209.87 93.34 210.01 93.26C210.49 92.98 210.9 92.61 211.21 92.14C211.54 91.67 211.69 91.06 211.69 90.31C211.69 89.56 211.54 89.13 211.21 89.03C210.9 88.93 210.49 89.02 210.01 89.3C209.87 89.38 209.22 89.75 208.04 90.43L208.04 94.4ZM210.01 85.14C210.77 84.7 211.46 84.43 212.06 84.33C212.66 84.24 213.18 84.31 213.6 84.57C214.02 84.83 214.35 85.28 214.58 85.92C214.8 86.57 214.92 87.41 214.92 88.45C214.92 89.79 214.73 91.01 214.38 92.1C214.02 93.19 213.51 94.16 212.84 95C212.99 95.35 213.71 97.06 215 100.14C215.03 100.3 215.05 100.38 215.05 100.4C215.05 100.56 215.02 100.72 214.94 100.88C214.87 101.04 214.78 101.15 214.67 101.21C214.43 101.35 212.54 102.44 212.3 102.58C212.07 102.71 211.91 102.73 211.81 102.62C211.71 102.52 211.63 102.4 211.57 102.28C211.45 101.97 210.8 100.43 209.64 97.66L208.04 98.58C208.04 102.02 208.04 103.93 208.04 104.32C208.04 104.51 207.99 104.71 207.9 104.91C207.81 105.11 207.7 105.24 207.57 105.31C207.34 105.44 205.52 106.5 205.29 106.63C205.16 106.7 205.05 106.7 204.96 106.61C204.86 106.52 204.82 106.37 204.82 106.18C204.82 104.45 204.82 90.6 204.82 88.87C204.82 88.67 204.86 88.47 204.96 88.27C205.05 88.08 205.16 87.94 205.29 87.87C205.6 87.69 207.18 86.78 210.01 85.14" id="b1anjO9XiS"></path><path d="M222.02 92.91L221.78 92.6L220.15 89.12C220.15 94.44 220.15 97.4 220.15 97.99C220.15 98.19 220.1 98.39 220.01 98.58C219.92 98.78 219.8 98.91 219.68 98.99C219.45 99.12 217.62 100.17 217.4 100.3C217.27 100.38 217.16 100.37 217.06 100.28C216.97 100.19 216.93 100.05 216.93 99.85C216.93 98.12 216.93 84.27 216.93 82.54C216.93 82.34 216.97 82.15 217.06 81.95C217.16 81.75 217.27 81.62 217.4 81.54C217.6 81.43 219.21 80.49 219.42 80.38C219.65 80.24 219.82 80.24 219.94 80.37C220.05 80.5 220.13 80.6 220.16 80.67C220.35 81.06 221.29 82.99 222.98 86.46C224.68 81.03 225.62 78.02 225.81 77.41C225.84 77.31 225.91 77.12 226.03 76.85C226.15 76.59 226.32 76.39 226.55 76.26C226.75 76.14 228.37 75.21 228.57 75.09C228.7 75.02 228.81 75.03 228.9 75.12C229 75.21 229.04 75.35 229.04 75.54C229.04 77.28 229.04 91.13 229.04 92.86C229.04 93.05 229 93.25 228.9 93.45C228.81 93.65 228.7 93.78 228.57 93.85C228.34 93.98 226.52 95.04 226.29 95.17C226.16 95.24 226.05 95.23 225.96 95.14C225.87 95.06 225.82 94.91 225.82 94.72C225.82 94.12 225.82 91.17 225.82 85.84C224.84 89.06 224.29 90.85 224.19 91.21C224.13 91.39 224.05 91.58 223.95 91.79C223.85 92 223.72 92.15 223.54 92.25C223.43 92.32 222.54 92.83 222.43 92.9C222.25 93 222.12 93 222.02 92.91" id="b66lVwViC"></path><path d="M240.19 83.8C240.32 83.72 240.43 83.73 240.52 83.82C240.62 83.91 240.66 84.05 240.66 84.25C240.66 84.53 240.66 86.8 240.66 87.09C240.66 87.28 240.62 87.48 240.52 87.68C240.43 87.88 240.32 88.01 240.19 88.08C239.37 88.56 232.77 92.37 231.94 92.85C231.81 92.92 231.7 92.91 231.61 92.82C231.52 92.74 231.47 92.59 231.47 92.4C231.47 90.66 231.47 76.81 231.47 75.08C231.47 74.89 231.52 74.69 231.61 74.49C231.7 74.29 231.81 74.16 231.94 74.09C232.75 73.62 239.24 69.87 240.05 69.4C240.18 69.33 240.29 69.34 240.38 69.43C240.48 69.52 240.52 69.66 240.52 69.86C240.52 70.14 240.52 72.41 240.52 72.7C240.52 72.89 240.48 73.09 240.38 73.28C240.29 73.48 240.18 73.62 240.05 73.69C239.7 73.9 237.91 74.93 234.69 76.79L234.69 79.68C237.68 77.96 239.34 77 239.67 76.81C239.8 76.73 239.91 76.74 240 76.83C240.09 76.92 240.14 77.06 240.14 77.26C240.14 77.54 240.14 79.82 240.14 80.1C240.14 80.3 240.09 80.49 240 80.69C239.91 80.89 239.8 81.02 239.67 81.1C239.34 81.29 237.68 82.25 234.69 83.97L234.69 86.97L240.19 83.8" id="a3xArmW0WC"></path><path d="M248.09 69C247.98 69.07 247.38 69.41 246.32 70.03L246.32 80.21C247.44 79.57 248.06 79.21 248.18 79.14C249.64 78.29 250.4 76.83 250.46 74.74C250.47 74.35 250.48 74 250.48 73.67C250.48 73.34 250.48 73.02 250.48 72.7C250.48 72.39 250.48 72.07 250.48 71.75C250.48 71.43 250.47 71.08 250.46 70.72C250.39 68.7 249.6 68.13 248.09 69ZM248.18 64.66C248.98 64.2 249.71 63.96 250.38 63.95C251.04 63.93 251.61 64.11 252.09 64.5C252.57 64.88 252.95 65.45 253.22 66.22C253.49 66.98 253.65 67.9 253.68 68.96C253.69 69.33 253.7 69.67 253.7 69.99C253.7 70.3 253.7 70.6 253.7 70.88C253.7 71.17 253.7 71.47 253.7 71.77C253.7 72.07 253.69 72.41 253.68 72.77C253.65 73.9 253.5 74.99 253.23 76.06C252.96 77.13 252.6 78.13 252.12 79.06C251.66 79.99 251.09 80.83 250.44 81.57C249.79 82.31 249.07 82.91 248.27 83.37C247.8 83.64 244.04 85.82 243.57 86.09C243.44 86.16 243.33 86.15 243.24 86.07C243.14 85.98 243.1 85.83 243.1 85.64C243.1 83.9 243.1 70.05 243.1 68.32C243.1 68.12 243.14 67.93 243.24 67.73C243.33 67.54 243.44 67.4 243.57 67.33C243.88 67.15 245.41 66.26 248.18 64.66" id="bBz7cEu3o"></path><path d="M512.84 188.72C511.93 185.07 511.08 182.24 508.74 176.49C508.74 176.49 468.93 181.2 458.65 181.41C454.8 198.29 453.58 202.94 450.54 212.95C448.27 220.41 442.69 244.44 439.65 265.18C439 269.61 442.66 280.57 444.29 284.75C453.8 309.1 469.48 348 469.48 348C470.92 351.8 471.2 354.79 470.82 358.38C470.34 362.81 468.57 368.57 466.32 373.58C465.63 375.13 464.84 376.96 463.86 378.53C461.69 383.34 464.75 384.18 469.63 382.02C474.78 379.75 478.05 374.29 479.45 370.34C481.56 364.45 485.57 355.18 485.4 352.18C485.41 352.18 485.43 352.16 485.46 352.13L485.37 351.8L485.36 351.79C484.91 348.24 484.66 346.27 484.61 345.88C484.61 345.88 481.01 327.6 478.84 306.56C477.03 289.02 476.6 284.23 468.11 270.79C470.41 265.9 488.79 226.76 491.09 221.87C498.34 208.91 512.84 188.72 512.84 188.72" id="dZhn6twt7"></path><path d="M491.97 356.58C492.31 356.93 493.09 358.5 493.09 360.09C492.23 364.44 487.52 367.47 485.64 370.19C483.75 372.91 481.79 378.9 480.56 382.44C479.45 385.63 475.39 390.9 469.41 392C465.86 392.64 463.06 391.26 461.32 389.59C461.32 389.59 490.72 355.27 491.97 356.58" id="a4WLAdxc0"></path><path d="M488.62 349.37C490.07 351.59 493.49 355.02 491.89 358.87C490.51 362.22 487.07 365.41 484.78 368.06C483.5 369.55 483.08 371.13 482.31 372.87C481.42 374.86 480.05 379.59 479.01 381.5C478.17 383.04 477.02 384.4 475.77 385.62C474.39 386.96 472.86 388.17 471.11 388.96C468.39 390.19 463.98 390.98 461.32 389.59C458.59 388.16 456.88 384.78 459.26 381.35C459.96 380.34 460.66 379.32 461.42 378.35C462.75 376.67 463.74 374.25 464.64 372.26C465.26 370.91 467.32 365.33 467.73 364.05C468.56 361.42 469.76 357.63 469.38 355.88C469.2 355.03 468.87 353.78 468.99 353.21C469.13 352.59 469.45 352.28 470.02 352C471.29 351.37 472.88 351.56 474.3 351.64C475.56 351.71 476.79 352.07 478.05 352.19C480.19 352.39 482.26 351.43 483.6 349.32C484.19 348.39 484.69 347.2 484.61 345.88C484.58 345.76 484.32 344.77 484.28 344.65C485.54 343.66 486.99 346.88 488.62 349.37" id="bIDjNiXLW"></path><path d="M477.19 253.93C477.19 253.93 457.96 251.78 442.47 239.57C442.47 239.57 455.47 188.78 458.98 179.73C461.82 181.14 476.04 188.19 501.62 200.88L477.19 253.93" id="bdwqZEaEM"></path><path d="M475.13 245.4C472.92 228.26 471.7 218.73 471.45 216.83C471.45 216.83 462.58 212.86 459.34 201.18C459.34 201.18 463.85 209.06 473.22 212.2C473.59 214.75 475.47 227.46 478.84 250.35C477.85 252.5 477.3 253.69 477.19 253.93C477.19 253.93 475.15 253.69 471.86 252.97C472.08 252.46 473.17 249.94 475.13 245.4" id="b29kJTsnJ1"></path><path d="M534.03 210.86C535.17 208.98 536.25 207.92 537.87 207.14C539.5 206.37 544.5 206.58 547.47 210.13C550.44 213.67 551.05 218.66 552.94 221.37C554.83 224.09 559.85 227.79 562.75 230.18C565.35 232.33 568.63 238.24 567.97 244.28C567.55 248.15 565.64 249.89 563.47 250.93C561.51 248.26 551.7 234.9 534.03 210.86" id="l3YJd3t2"></path><path d="M535.33 209.39C537.73 208.26 542.07 208.94 545.13 211.78C547.78 214.25 549.56 218.58 551.25 221.65C552.2 223.37 553.53 224.32 554.89 225.65C556.45 227.18 560.4 230.11 561.83 231.76C562.98 233.09 563.85 234.64 564.56 236.24C565.33 237.99 565.93 239.85 566.06 241.77C566.26 244.75 565.47 249.16 563.24 251.16C560.94 253.22 557.17 253.64 554.79 250.21C554.09 249.2 553.38 248.2 552.74 247.14C551.63 245.3 549.9 243.17 548.36 241.63C545.99 239.27 543 237.16 541.2 236.13C540.92 235.97 540.63 235.77 540.35 235.64C537.16 234.11 533.91 232.83 533.47 231.69C533.1 230.74 532.25 220.53 529.73 218.38C529.07 217.82 529.42 216.86 530.03 215.97C530.63 215.08 532.93 210.53 535.33 209.39" id="a1ZoNfhG7L"></path><path d="M508.96 175.79C513.56 189.57 515 197.34 514.7 213.66C514.5 224.37 512.87 249.59 511.89 261.87C510.91 274.15 510.82 283.3 506.14 287.18C501.46 291.07 491.45 289.86 487.83 281.78C484.22 273.7 481.47 263.97 479.05 249.03C476.62 234.09 477.33 224.6 477.33 224.6C477.23 221.91 476.74 208.45 475.86 184.23L508.96 175.79" id="chFD8FnOE"></path><path d="M499.52 289.28C504.92 289.72 508.43 287.85 516.41 275.3C524.4 262.74 541.1 229.56 541.1 229.56C541.1 229.56 543.42 223.21 539 218.75C534.04 213.75 530.82 216.44 530.82 216.44C530.82 216.44 526.58 221.78 521.83 226.97C517.46 231.75 511.89 236.4 508.1 240.89C505.45 244.03 499.52 289.28 499.52 289.28" id="j2kfjSR25"></path><path d="M513.72 235.03C513.72 235.03 512.06 265.36 510.65 276.06C510.93 275.18 513.73 267.77 515.47 253.67C517.21 239.57 517.08 231.79 517.08 231.79C516.85 232.01 515.73 233.09 513.72 235.03" id="dSePutEbS"></path><path d="M508.96 175.79C508.96 175.79 514.6 187.84 515.38 201.58C516.16 215.33 513.39 249.27 513.39 249.27C513.39 249.27 510.03 254.41 497.38 255.71C484.73 257.02 479.4 254.22 479.4 254.22C478.78 250.02 473.84 216.41 473.22 212.2C473.22 212.2 457.18 203.13 456.75 186.15C460.23 185.46 477.63 182.01 508.96 175.79" id="bxhlcuTKu"></path><path d="M493.47 195.67C494.31 195.67 494.77 195.67 494.86 195.67C494.86 201.54 497.35 207.49 501.35 211.19C503.72 213.39 506.42 214.56 509.05 214.56C509.14 202.7 508.56 191.36 507.07 184.81C507.21 184.78 508.29 184.53 508.43 184.5C511.67 198.72 510.87 237.89 507.37 253.37C506.88 253.57 506.35 253.77 505.78 253.96C507.61 246.45 508.85 230.95 509.03 215.96C506.07 215.96 503.03 214.65 500.4 212.21C496.13 208.26 493.47 201.92 493.47 195.67" id="c64ezT0CeI"></path><path d="M439.67 29.64C439.67 29.64 440.21 23.99 442.36 19.13C445.29 12.55 444.58 9.19 435.68 11.53C430.11 13 425.63 16.96 424.79 30.35C424.55 34.21 424.7 38.67 424.8 47.68C424.92 58.02 425.6 68.45 426.87 76.98C427.43 80.77 428.1 84.04 430.19 88.02C440.33 107.29 454.52 120.17 461.33 132.61C469.9 132.03 481.83 117.9 475.44 109.06C468.15 105.98 448.03 83.78 445.24 73.23C443.38 66.23 438.73 50.54 438.97 42.54C439.01 41.68 439.25 37.38 439.67 29.64" id="bWs1waHgO"></path><path d="M460.58 165.7C460.37 162.12 460.56 156.16 460.59 154.39C451.66 145.84 454.3 136.64 457.67 129.89C464.4 116.4 470.84 108.77 476.79 109.07C478.41 109.21 491.41 110.33 493.03 110.47C501.9 111.63 507.95 112.71 510.1 113.2C515.55 114.46 515.35 118.43 515.59 124.23C515.86 130.59 516.39 131.62 514.78 142.16C514.27 143.23 511.71 148.59 507.11 158.23C506.25 163.14 505.78 165.86 505.68 166.41C507.34 170.03 514.74 181.02 515.9 197.7C515.9 197.7 503.25 202.02 483.66 202.2C463.13 202.38 454.54 193.43 454.54 193.43C454.94 191.58 456.95 182.34 460.58 165.7" id="b41H35INWM"></path><path d="M471.03 160.04L497.82 160.04L497.82 149.33L471.03 149.33L471.03 160.04Z" id="g49wLDJk3B"></path><path d="M463.72 66.13C463.75 65.82 463.76 65.65 463.76 65.62C465.22 50.04 474.16 47.14 490.5 48.81C502.58 50.05 513.53 55.7 517.17 66.41C519.91 74.45 518.61 83.41 513.87 90.46C508.87 97.86 500.43 101.98 488.5 100.87C488.5 100.87 488.49 100.87 488.49 100.87C472.96 102.76 462.26 81.7 463.72 66.13" id="ajMIM7Nfx"></path><path d="M566.39 83.57C569.19 81.46 571.45 78.64 572.96 75.48C575.4 70.38 576.54 62.57 570.82 59.07C570.17 58.67 569.45 58.37 568.69 58.3C566.16 58.04 564.13 60.17 562.15 61.75C558.36 64.76 553.34 66.16 548.54 65.55C543.32 64.88 538.64 61.97 534.54 58.67C533.23 57.62 531.94 56.51 530.4 55.83C529.17 55.29 527.82 55.05 526.48 54.97C522.05 54.7 517.58 56.12 513.98 58.7C512.7 59.61 511.45 60.8 511.23 62.36C511.08 63.37 511.61 64.57 512.52 65.08C513.57 65.68 514.95 65.06 516.07 64.95C518.83 64.68 521.76 65.06 524.09 66.65C526.37 68.22 527.8 70.71 529.34 73.01C534.17 80.25 541.32 86.54 549.93 87.8C555.68 88.64 561.75 87.08 566.39 83.57" id="ahpWwb3fy"></path><path d="M474.44 58.72C471.24 60.23 466.79 67.49 465.67 83.49C464.72 97.05 468.79 100.81 470.9 101.98C473.01 103.14 477.32 102.96 481.51 102.65C481.43 103.47 480.83 109.96 480.75 110.77C480.75 110.77 468.18 122.18 477.55 124.28C482.23 125.32 488.49 122.89 492.81 120.08C497.23 117.21 498.86 112.04 498.86 112.04C499.02 110.27 500.26 96.14 500.42 94.37C500.42 94.37 502.63 96.96 507.09 93.74C510.77 91.08 512.38 86.17 509.98 83.24C507.58 80.3 502.61 80.57 500.38 84.23C500.38 84.23 497.94 84.2 495.93 79.48C495.93 79.48 490.42 79.98 484.55 75.79C476.37 69.96 474.93 61.5 474.44 58.72" id="a1LsF4vTa"></path><path d="M483.55 80.87C483.41 81.84 484.05 82.73 484.99 82.87C485.92 83 486.79 82.32 486.93 81.35C487.07 80.38 486.43 79.48 485.49 79.35C484.56 79.22 483.69 79.9 483.55 80.87" id="bAaZSnxLX"></path><path d="M477.6 95.49C476.32 95.49 475.17 94.55 474.91 93.2C475.46 93.08 479.83 92.12 480.38 92C480.68 93.56 479.7 95.09 478.18 95.42C477.99 95.47 477.8 95.49 477.6 95.49" id="b2DWjd5S9V"></path><path d="M468.66 74.14C470.86 72.9 472.08 72.21 472.32 72.08C471.79 71.03 470.53 70.65 469.52 71.22C468.51 71.79 468.12 73.1 468.66 74.14" id="e1kvEQEYwM"></path><path d="M486.48 75.11C488.74 76.24 490 76.86 490.25 76.98C490.81 75.95 490.42 74.7 489.38 74.18C488.33 73.67 487.04 74.09 486.48 75.11" id="a1cYRIilKE"></path><path d="M469.14 79.15C469 80.12 469.64 81.01 470.58 81.14C471.51 81.28 472.38 80.6 472.52 79.63C472.66 78.65 472.02 77.76 471.08 77.63C470.15 77.5 469.28 78.18 469.14 79.15" id="ajnPINmcE"></path><path d="M476.17 89.15L470.93 86.98L477.39 78.94L476.17 89.15" id="bHa3iueGN"></path><path d="M481.26 105.36C481.41 103.74 481.49 102.83 481.51 102.65C485.92 102.49 495.11 100.75 496.83 97.34C496.83 97.34 496.16 99.52 493.27 101.57C490.39 103.61 481.26 105.36 481.26 105.36" id="hJbBNgnEy"></path><path d="M513.77 59.3C512.57 54.91 511.9 52.47 511.77 51.99C509.69 52.48 508.46 54.52 509.01 56.54C509.56 58.56 511.69 59.79 513.77 59.3" id="a1TTtEEhYe"></path><path d="M514.41 59.87C516.92 56.08 518.31 53.97 518.59 53.55C516.85 52.31 514.5 52.73 513.35 54.47C512.19 56.22 512.67 58.64 514.41 59.87" id="f2natSkZ"></path><path d="M500.38 84.23C499.98 88.5 499.76 90.88 499.71 91.35C497.04 91.1 495.07 88.73 495.32 86.06C495.36 85.62 495.57 83.43 495.93 79.48L500.38 84.23" id="a62cqmBKza"></path><path d="M544.52 94.59C532.27 119.52 523.13 126.51 514.78 142.16C500.89 142.8 499.86 121.3 506.24 112.45C506.24 112.45 526.51 92.46 529.93 82.1C533.08 72.55 537.63 55.88 537.39 47.88C537.36 46.54 536.76 45.31 535.85 44.33C533.22 41.5 533.22 39.22 531.53 36.09C530.21 33.65 528.77 32.74 529.18 32.19C529.71 31.49 531.37 30.57 533.45 31.88C534.49 32.54 535.17 33.31 536.69 34.98C536.69 34.98 536.33 29.05 534.18 24.19C531.26 17.61 531.97 14.25 540.86 16.6C546.43 18.06 551.28 22.42 552.11 35.81C552.35 39.67 552.48 47.96 552.03 52.84C551.06 63.14 549.79 72.58 548.52 81.11C547.96 84.9 546.21 91.15 544.52 94.59" id="iywRcJ5iR"></path><path d="M418.63 41.61L418.67 41.61L418.71 41.6L418.74 41.59L418.78 41.58L418.88 41.54C438.32 30.31 449.12 24.08 451.27 22.83C451.57 22.66 451.81 22.25 451.81 21.9C451.81 20.54 451.81 13.71 451.81 1.42L451.81 1.34L451.8 1.31L451.76 1.18L451.75 1.16L451.72 1.12L451.69 1.1L451.65 1.07L451.62 1.05L451.58 1.04L451.53 1.04L451.28 1.11L418.88 19.81L418.63 20.03L418.51 20.21L418.41 20.4L418.39 20.47L418.35 20.67L418.35 20.74C418.35 33.03 418.35 39.86 418.35 41.22C418.35 41.46 418.46 41.6 418.63 41.61" id="bXq545Ty6"></path><path d="M451.81 1.34C451.78 1.02 451.55 0.65 451.27 0.49C451.21 0.45 450.72 0.17 450.66 0.13C450.36 -0.04 449.88 -0.04 449.59 0.13C447.43 1.38 436.63 7.61 417.2 18.83L416.89 19.11L416.82 19.23L416.82 19.23L418.5 20.21L418.51 20.21L418.63 20.03L418.88 19.81C438.32 8.59 449.12 2.35 451.28 1.11C451.55 0.95 451.78 1.05 451.81 1.34" id="bNwwuOrKq"></path><path d="M419.62 31.2C420.14 30.9 420.58 30.14 420.58 29.54C420.58 29.38 420.55 29.25 420.49 29.16C420.32 28.86 419.97 29.02 419.83 29.1C419.31 29.4 418.87 30.16 418.87 30.76C418.87 30.92 418.9 31.05 418.95 31.14C419.12 31.44 419.48 31.28 419.62 31.2" id="c7qpp3j5j"></path><path d="M450.43 12.37C450.43 12.53 450.55 12.6 450.7 12.52C450.84 12.43 450.96 12.23 450.96 12.06C450.96 11.89 450.84 11.83 450.7 11.91C450.55 11.99 450.43 12.2 450.43 12.37" id="bgCV1lP4m"></path><path d="M449.6 15.81C449.6 15.96 449.71 16.02 449.84 15.95C449.96 15.87 450.07 15.69 450.07 15.54C450.07 15.4 449.96 15.34 449.84 15.41C449.71 15.48 449.6 15.67 449.6 15.81" id="bVUPn0Ik2"></path><path d="M449.59 11.84C449.59 13.64 449.59 14.65 449.59 14.85C449.59 15.01 449.7 15.08 449.84 15.01C449.97 14.93 450.08 14.73 450.08 14.57C450.08 14.27 450.08 11.86 450.08 11.56C450.08 11.39 449.97 11.32 449.84 11.4C449.7 11.48 449.59 11.67 449.59 11.84" id="avHviONik"></path><path d="M418.81 41.57C418.55 41.68 418.35 41.54 418.35 41.22C418.35 39.18 418.35 22.79 418.35 20.74C418.35 20.57 418.41 20.38 418.5 20.21C418.34 20.11 416.98 19.33 416.82 19.23C416.72 19.4 416.66 19.59 416.66 19.76C416.66 21.81 416.66 38.2 416.66 40.25C416.66 40.59 416.9 41.01 417.19 41.18C417.26 41.21 417.75 41.5 417.81 41.54C418.08 41.69 418.51 41.7 418.81 41.57" id="amXfXpp73"></path><path d="M443.23 5.21C443.07 5.3 442.83 5.3 442.69 5.22C442.68 5.21 442.65 5.16 442.59 5.07L442.59 4.84L442.7 4.68C444.87 3.43 446.08 2.74 446.32 2.6C446.47 2.51 446.71 2.5 446.85 2.59C446.86 2.6 446.9 2.64 446.96 2.73L446.96 2.96L446.84 3.12L443.23 5.21" id="l9Zk7hxTzY"></path><path d="M443.23 4.98C445.39 3.73 446.6 3.04 446.84 2.9C446.99 2.81 447 2.67 446.85 2.59C446.71 2.5 446.47 2.51 446.32 2.6C445.96 2.81 443.07 4.47 442.7 4.68C442.55 4.77 442.54 4.91 442.69 4.99C442.83 5.08 443.07 5.07 443.23 4.98" id="a9gbk8aZt"></path><path d="M420.95 38.15L420.95 36.97L420.96 20.59C420.96 20.52 420.97 20.48 420.97 20.47C421 20.23 421.12 20.02 421.32 19.87C421.32 19.86 421.36 19.84 421.42 19.8L447.11 4.97L448.35 4.25C448.43 4.22 448.48 4.2 448.49 4.19C448.67 4.15 448.81 4.28 448.81 4.52C448.81 6.27 448.81 20.31 448.81 22.06C448.81 22.28 448.78 22.48 448.66 22.63C448.65 22.64 448.62 22.67 448.56 22.73L448.5 22.78C432.25 32.16 423.22 37.37 421.42 38.41C421.21 38.53 420.95 38.38 420.95 38.15" id="amoJi43tZ"></path><path d="M431.68 29.91L431.68 29.91L431.89 29.79L431.89 29.79L431.68 29.91M438.18 26.16L438.18 26.16L438.31 26.09L438.18 26.16M437.91 12.85L437.91 12.85L438.2 12.68L437.91 12.85" id="aguyr3wXP"></path><path d="M438.97 42.54C439.01 41.2 439.6 39.97 440.51 38.99C443.14 36.16 443.14 33.88 444.83 30.75C446.15 28.31 447.59 27.4 447.18 26.85C446.65 26.15 444.99 25.23 442.91 26.54C441.87 27.2 441.19 27.97 439.67 29.64" id="avmUj2PD"></path></defs><g><g><g><use xlink:href="#b7DKb3d56" opacity="1" fill="#f3f2f1" fill-opacity="1"></use><g><use xlink:href="#b7DKb3d56" opacity="1" fill-opacity="0" stroke="#000000" stroke-width="1" stroke-opacity="0"></use></g></g><g><use xlink:href="#b1VvOzy0nS" opacity="1" fill="#dadbd8" fill-opacity="1"></use><g><use xlink:href="#b1VvOzy0nS" opacity="1" fill-opacity="0" stroke="#000000" stroke-width="1" stroke-opacity="0"></use></g></g><g><use xlink:href="#a6Aik1zwVV" opacity="1" fill="#dadbd8" fill-opacity="1"></use><g><use xlink:href="#a6Aik1zwVV" opacity="1" fill-opacity="0" stroke="#000000" stroke-width="1" stroke-opacity="0"></use></g></g><g><use xlink:href="#e7AZsxh6Nq" opacity="1" fill="#26b6a6" fill-opacity="1"></use><g><use xlink:href="#e7AZsxh6Nq" opacity="1" fill-opacity="0" stroke="#000000" stroke-width="1" stroke-opacity="0"></use></g></g><g><use xlink:href="#c2hZFV98jg" opacity="1" fill="#e08071" fill-opacity="1"></use><g><use xlink:href="#c2hZFV98jg" opacity="1" fill-opacity="0" stroke="#000000" stroke-width="1" stroke-opacity="0"></use></g></g><g><use xlink:href="#b1sYSEo3Ak" opacity="1" fill="#ffffff" fill-opacity="1"></use><g><use xlink:href="#b1sYSEo3Ak" opacity="1" fill-opacity="0" stroke="#000000" stroke-width="1" stroke-opacity="0"></use></g></g><g><use xlink:href="#e17v61ZMtB" opacity="1" fill="#e08071" fill-opacity="1"></use><g><use xlink:href="#e17v61ZMtB" opacity="1" fill-opacity="0" stroke="#000000" stroke-width="1" stroke-opacity="0"></use></g></g><g><use xlink:href="#dmf0zEzua" opacity="1" fill="#ffffff" fill-opacity="1"></use><g><use xlink:href="#dmf0zEzua" opacity="1" fill-opacity="0" stroke="#000000" stroke-width="1" stroke-opacity="0"></use></g></g><g><use xlink:href="#bZFuOZNW5" opacity="1" fill="#ffffff" fill-opacity="1"></use><g><use xlink:href="#bZFuOZNW5" opacity="1" fill-opacity="0" stroke="#000000" stroke-width="1" stroke-opacity="0"></use></g></g><g><use xlink:href="#eMUyWHn5Y" opacity="1" fill="#26b6a6" fill-opacity="1"></use><g><use xlink:href="#eMUyWHn5Y" opacity="1" fill-opacity="0" stroke="#000000" stroke-width="1" stroke-opacity="0"></use></g></g><g><use xlink:href="#a6ZhFWbwd" opacity="1" fill="#e08071" fill-opacity="1"></use><g><use xlink:href="#a6ZhFWbwd" opacity="1" fill-opacity="0" stroke="#000000" stroke-width="1" stroke-opacity="0"></use></g></g><g><use xlink:href="#b2UNz0CTLy" opacity="1" fill="#ffffff" fill-opacity="1"></use><g><use xlink:href="#b2UNz0CTLy" opacity="1" fill-opacity="0" stroke="#000000" stroke-width="1" stroke-opacity="0"></use></g></g><g><use xlink:href="#c1FLmtjnpH" opacity="1" fill="#e08071" fill-opacity="1"></use><g><use xlink:href="#c1FLmtjnpH" opacity="1" fill-opacity="0" stroke="#000000" stroke-width="1" stroke-opacity="0"></use></g></g><g><use xlink:href="#dw1kU8nuh" opacity="1" fill="#ffffff" fill-opacity="1"></use><g><use xlink:href="#dw1kU8nuh" opacity="1" fill-opacity="0" stroke="#000000" stroke-width="1" stroke-opacity="0"></use></g></g><g><use xlink:href="#bBga3LvYO" opacity="1" fill="#33535f" fill-opacity="1"></use><g><use xlink:href="#bBga3LvYO" opacity="1" fill-opacity="0" stroke="#000000" stroke-width="1" stroke-opacity="0"></use></g></g><g><use xlink:href="#j1rqAuYHj4" opacity="1" fill="#273e47" fill-opacity="1"></use><g><use xlink:href="#j1rqAuYHj4" opacity="1" fill-opacity="0" stroke="#000000" stroke-width="1" stroke-opacity="0"></use></g></g><g><use xlink:href="#b1k3M2IWAP" opacity="1" fill="#e08071" fill-opacity="1"></use><g><use xlink:href="#b1k3M2IWAP" opacity="1" fill-opacity="0" stroke="#000000" stroke-width="1" stroke-opacity="0"></use></g></g><g><use xlink:href="#f6TnfICSPU" opacity="1" fill="#17282f" fill-opacity="1"></use><g><use xlink:href="#f6TnfICSPU" opacity="1" fill-opacity="0" stroke="#000000" stroke-width="1" stroke-opacity="0"></use></g></g><g><use xlink:href="#b1CvDAjfwb" opacity="1" fill="#17282f" fill-opacity="1"></use><g><use xlink:href="#b1CvDAjfwb" opacity="1" fill-opacity="0" stroke="#000000" stroke-width="1" stroke-opacity="0"></use></g></g><g><use xlink:href="#b8H4BdfV3" opacity="1" fill="#17282f" fill-opacity="1"></use><g><use xlink:href="#b8H4BdfV3" opacity="1" fill-opacity="0" stroke="#000000" stroke-width="1" stroke-opacity="0"></use></g></g><g><use xlink:href="#f25savcdG" opacity="1" fill="#17282f" fill-opacity="1"></use><g><use xlink:href="#f25savcdG" opacity="1" fill-opacity="0" stroke="#000000" stroke-width="1" stroke-opacity="0"></use></g></g><g><use xlink:href="#a4p3xRA4X" opacity="1" fill="#17282f" fill-opacity="1"></use><g><use xlink:href="#a4p3xRA4X" opacity="1" fill-opacity="0" stroke="#000000" stroke-width="1" stroke-opacity="0"></use></g></g><g><use xlink:href="#a7lc1YvBCz" opacity="1" fill="#33535f" fill-opacity="1"></use><g><use xlink:href="#a7lc1YvBCz" opacity="1" fill-opacity="0" stroke="#000000" stroke-width="1" stroke-opacity="0"></use></g></g><g><use xlink:href="#a5RuCjmAi" opacity="1" fill="#17282f" fill-opacity="1"></use><g><use xlink:href="#a5RuCjmAi" opacity="1" fill-opacity="0" stroke="#000000" stroke-width="1" stroke-opacity="0"></use></g></g><g><use xlink:href="#aou2sPEap" opacity="1" fill="#33535f" fill-opacity="1"></use><g><use xlink:href="#aou2sPEap" opacity="1" fill-opacity="0" stroke="#000000" stroke-width="1" stroke-opacity="0"></use></g></g><g><use xlink:href="#a619xAJb04" opacity="1" fill="#26b6a6" fill-opacity="1"></use><g><use xlink:href="#a619xAJb04" opacity="1" fill-opacity="0" stroke="#000000" stroke-width="1" stroke-opacity="0"></use></g></g><g><use xlink:href="#c7tBRuliT" opacity="1" fill="#e1a69c" fill-opacity="1"></use><g><use xlink:href="#c7tBRuliT" opacity="1" fill-opacity="0" stroke="#000000" stroke-width="1" stroke-opacity="0"></use></g></g><g><use xlink:href="#gPPmLlICC" opacity="1" fill="#33535f" fill-opacity="1"></use><g><use xlink:href="#gPPmLlICC" opacity="1" fill-opacity="0" stroke="#000000" stroke-width="1" stroke-opacity="0"></use></g></g><g><use xlink:href="#h6Xiab3XJ" opacity="1" fill="#33535f" fill-opacity="1"></use><g><use xlink:href="#h6Xiab3XJ" opacity="1" fill-opacity="0" stroke="#000000" stroke-width="1" stroke-opacity="0"></use></g></g><g><use xlink:href="#der7qVqGt" opacity="1" fill="#33535f" fill-opacity="1"></use><g><use xlink:href="#der7qVqGt" opacity="1" fill-opacity="0" stroke="#000000" stroke-width="1" stroke-opacity="0"></use></g></g><g><use xlink:href="#fdd7REhF6" opacity="1" fill="#33535f" fill-opacity="1"></use><g><use xlink:href="#fdd7REhF6" opacity="1" fill-opacity="0" stroke="#000000" stroke-width="1" stroke-opacity="0"></use></g></g><g><use xlink:href="#b2liQWVdzd" opacity="1" fill="#33535f" fill-opacity="1"></use><g><use xlink:href="#b2liQWVdzd" opacity="1" fill-opacity="0" stroke="#000000" stroke-width="1" stroke-opacity="0"></use></g></g><g><use xlink:href="#c2j3XtZYt" opacity="1" fill="#33535f" fill-opacity="1"></use><g><use xlink:href="#c2j3XtZYt" opacity="1" fill-opacity="0" stroke="#000000" stroke-width="1" stroke-opacity="0"></use></g></g><g><use xlink:href="#c2dfYPi8lD" opacity="1" fill="#33535f" fill-opacity="1"></use><g><use xlink:href="#c2dfYPi8lD" opacity="1" fill-opacity="0" stroke="#000000" stroke-width="1" stroke-opacity="0"></use></g></g><g><use xlink:href="#b6x2gdlx0" opacity="1" fill="#33535f" fill-opacity="1"></use><g><use xlink:href="#b6x2gdlx0" opacity="1" fill-opacity="0" stroke="#000000" stroke-width="1" stroke-opacity="0"></use></g></g><g><use xlink:href="#a6gkc6kkGD" opacity="1" fill="#33535f" fill-opacity="1"></use><g><use xlink:href="#a6gkc6kkGD" opacity="1" fill-opacity="0" stroke="#000000" stroke-width="1" stroke-opacity="0"></use></g></g><g><use xlink:href="#ehwXF71wE" opacity="1" fill="#33535f" fill-opacity="1"></use><g><use xlink:href="#ehwXF71wE" opacity="1" fill-opacity="0" stroke="#000000" stroke-width="1" stroke-opacity="0"></use></g></g><g><use xlink:href="#dEJUyLQL9" opacity="1" fill="#33535f" fill-opacity="1"></use><g><use xlink:href="#dEJUyLQL9" opacity="1" fill-opacity="0" stroke="#000000" stroke-width="1" stroke-opacity="0"></use></g></g><g><use xlink:href="#a90dHGh5I" opacity="1" fill="#33535f" fill-opacity="1"></use><g><use xlink:href="#a90dHGh5I" opacity="1" fill-opacity="0" stroke="#000000" stroke-width="1" stroke-opacity="0"></use></g></g><g><use xlink:href="#ajeq6sCDY" opacity="1" fill="#33535f" fill-opacity="1"></use><g><use xlink:href="#ajeq6sCDY" opacity="1" fill-opacity="0" stroke="#000000" stroke-width="1" stroke-opacity="0"></use></g></g><g><use xlink:href="#a3CzXwFGRa" opacity="1" fill="#33535f" fill-opacity="1"></use><g><use xlink:href="#a3CzXwFGRa" opacity="1" fill-opacity="0" stroke="#000000" stroke-width="1" stroke-opacity="0"></use></g></g><g><use xlink:href="#c1kqanrnc1" opacity="1" fill="#33535f" fill-opacity="1"></use><g><use xlink:href="#c1kqanrnc1" opacity="1" fill-opacity="0" stroke="#000000" stroke-width="1" stroke-opacity="0"></use></g></g><g><use xlink:href="#aW5Z2EKV4" opacity="1" fill="#33535f" fill-opacity="1"></use><g><use xlink:href="#aW5Z2EKV4" opacity="1" fill-opacity="0" stroke="#000000" stroke-width="1" stroke-opacity="0"></use></g></g><g><use xlink:href="#a3QO6iqTNh" opacity="1" fill="#33535f" fill-opacity="1"></use><g><use xlink:href="#a3QO6iqTNh" opacity="1" fill-opacity="0" stroke="#000000" stroke-width="1" stroke-opacity="0"></use></g></g><g><use xlink:href="#b5HAzswR8I" opacity="1" fill="#33535f" fill-opacity="1"></use><g><use xlink:href="#b5HAzswR8I" opacity="1" fill-opacity="0" stroke="#000000" stroke-width="1" stroke-opacity="0"></use></g></g><g><use xlink:href="#e16YHUY77V" opacity="1" fill="#33535f" fill-opacity="1"></use><g><use xlink:href="#e16YHUY77V" opacity="1" fill-opacity="0" stroke="#000000" stroke-width="1" stroke-opacity="0"></use></g></g><g><use xlink:href="#b2Tl3HHOCA" opacity="1" fill="#33535f" fill-opacity="1"></use><g><use xlink:href="#b2Tl3HHOCA" opacity="1" fill-opacity="0" stroke="#000000" stroke-width="1" stroke-opacity="0"></use></g></g><g><use xlink:href="#hrE0gBDb4" opacity="1" fill="#33535f" fill-opacity="1"></use><g><use xlink:href="#hrE0gBDb4" opacity="1" fill-opacity="0" stroke="#000000" stroke-width="1" stroke-opacity="0"></use></g></g><g><use xlink:href="#a2Mpo3XWV4" opacity="1" fill="#e08071" fill-opacity="1"></use><g><use xlink:href="#a2Mpo3XWV4" opacity="1" fill-opacity="0" stroke="#000000" stroke-width="1" stroke-opacity="0"></use></g></g><g><use xlink:href="#d2l7CH9uQQ" opacity="1" fill="#26b6a6" fill-opacity="1"></use><g><use xlink:href="#d2l7CH9uQQ" opacity="1" fill-opacity="0" stroke="#000000" stroke-width="1" stroke-opacity="0"></use></g></g><g><use xlink:href="#grX5Pfans" opacity="1" fill="#26b6a6" fill-opacity="1"></use><g><use xlink:href="#grX5Pfans" opacity="1" fill-opacity="0" stroke="#000000" stroke-width="1" stroke-opacity="0"></use></g></g><g><use xlink:href="#e1BWcBcTsP" opacity="1" fill="#aad6c8" fill-opacity="1"></use><g><use xlink:href="#e1BWcBcTsP" opacity="1" fill-opacity="0" stroke="#000000" stroke-width="1" stroke-opacity="0"></use></g></g><g><use xlink:href="#fdSgARr5y" opacity="1" fill="#d58174" fill-opacity="1"></use><g><use xlink:href="#fdSgARr5y" opacity="1" fill-opacity="0" stroke="#000000" stroke-width="1" stroke-opacity="0"></use></g></g><g><use xlink:href="#b1AUbDZ0kD" opacity="1" fill="#e48d80" fill-opacity="1"></use><g><use xlink:href="#b1AUbDZ0kD" opacity="1" fill-opacity="0" stroke="#000000" stroke-width="1" stroke-opacity="0"></use></g></g><g><use xlink:href="#e6gDhgyGf" opacity="1" fill="#26b6a6" fill-opacity="1"></use><g><use xlink:href="#e6gDhgyGf" opacity="1" fill-opacity="0" stroke="#000000" stroke-width="1" stroke-opacity="0"></use></g></g><g><use xlink:href="#dq4wiXxE4" opacity="1" fill="#e66b58" fill-opacity="1"></use><g><use xlink:href="#dq4wiXxE4" opacity="1" fill-opacity="0" stroke="#000000" stroke-width="1" stroke-opacity="0"></use></g></g><g><use xlink:href="#b2VNLlZPp3" opacity="1" fill="#25ad95" fill-opacity="1"></use><g><use xlink:href="#b2VNLlZPp3" opacity="1" fill-opacity="0" stroke="#000000" stroke-width="1" stroke-opacity="0"></use></g></g><g><use xlink:href="#b17YRTO2H" opacity="1" fill="#e08071" fill-opacity="1"></use><g><use xlink:href="#b17YRTO2H" opacity="1" fill-opacity="0" stroke="#000000" stroke-width="1" stroke-opacity="0"></use></g></g><g><use xlink:href="#aea4yRcaE" opacity="1" fill="#e38374" fill-opacity="1"></use><g><use xlink:href="#aea4yRcaE" opacity="1" fill-opacity="0" stroke="#000000" stroke-width="1" stroke-opacity="0"></use></g></g><g><use xlink:href="#bHn4vXgUz" opacity="1" fill="#6accba" fill-opacity="1"></use><g><use xlink:href="#bHn4vXgUz" opacity="1" fill-opacity="0" stroke="#000000" stroke-width="1" stroke-opacity="0"></use></g></g><g><use xlink:href="#h2OxWEs7Y6" opacity="1" fill="#f47089" fill-opacity="1"></use><g><use xlink:href="#h2OxWEs7Y6" opacity="1" fill-opacity="0" stroke="#000000" stroke-width="1" stroke-opacity="0"></use></g></g><g><use xlink:href="#bpnBC1EPz" opacity="1" fill="#fafaf9" fill-opacity="1"></use><g><use xlink:href="#bpnBC1EPz" opacity="1" fill-opacity="0" stroke="#000000" stroke-width="1" stroke-opacity="0"></use></g></g><g><use xlink:href="#a4RlGWtVMW" opacity="1" fill="#040606" fill-opacity="1"></use><g><use xlink:href="#a4RlGWtVMW" opacity="1" fill-opacity="0" stroke="#000000" stroke-width="1" stroke-opacity="0"></use></g></g><g><use xlink:href="#d4L2AZyjuV" opacity="1" fill="#273e47" fill-opacity="1"></use><g><use xlink:href="#d4L2AZyjuV" opacity="1" fill-opacity="0" stroke="#000000" stroke-width="1" stroke-opacity="0"></use></g></g><g><use xlink:href="#a9bzVpJQaJ" opacity="1" fill="#17282f" fill-opacity="1"></use><g><use xlink:href="#a9bzVpJQaJ" opacity="1" fill-opacity="0" stroke="#000000" stroke-width="1" stroke-opacity="0"></use></g></g><g><use xlink:href="#c5JivM98pn" opacity="1" fill="#26b6a6" fill-opacity="1"></use><g><use xlink:href="#c5JivM98pn" opacity="1" fill-opacity="0" stroke="#000000" stroke-width="1" stroke-opacity="0"></use></g></g><g><use xlink:href="#a2TKxakgbt" opacity="1" fill="#040606" fill-opacity="1"></use><g><use xlink:href="#a2TKxakgbt" opacity="1" fill-opacity="0" stroke="#000000" stroke-width="1" stroke-opacity="0"></use></g></g><g><use xlink:href="#f7BRLopnU" opacity="1" fill="#c65e4e" fill-opacity="1"></use><g><use xlink:href="#f7BRLopnU" opacity="1" fill-opacity="0" stroke="#000000" stroke-width="1" stroke-opacity="0"></use></g></g><g><use xlink:href="#gfpAkRiiv" opacity="1" fill="#26b6a6" fill-opacity="1"></use><g><use xlink:href="#gfpAkRiiv" opacity="1" fill-opacity="0" stroke="#000000" stroke-width="1" stroke-opacity="0"></use></g></g><g><use xlink:href="#d9zvD6u3J" opacity="1" fill="#040606" fill-opacity="1"></use><g><use xlink:href="#d9zvD6u3J" opacity="1" fill-opacity="0" stroke="#000000" stroke-width="1" stroke-opacity="0"></use></g></g><g><use xlink:href="#a3zrLpjigk" opacity="1" fill="#e66b58" fill-opacity="1"></use><g><use xlink:href="#a3zrLpjigk" opacity="1" fill-opacity="0" stroke="#000000" stroke-width="1" stroke-opacity="0"></use></g></g><g><use xlink:href="#a1Qu9Mfu2p" opacity="1" fill="#e08071" fill-opacity="1"></use><g><use xlink:href="#a1Qu9Mfu2p" opacity="1" fill-opacity="0" stroke="#000000" stroke-width="1" stroke-opacity="0"></use></g></g><g><use xlink:href="#awbYsVMxn" opacity="1" fill="#ededeb" fill-opacity="1"></use><g><use xlink:href="#awbYsVMxn" opacity="1" fill-opacity="0" stroke="#000000" stroke-width="1" stroke-opacity="0"></use></g></g><g><use xlink:href="#fW6Z5chM" opacity="1" fill="#ededeb" fill-opacity="1"></use><g><use xlink:href="#fW6Z5chM" opacity="1" fill-opacity="0" stroke="#000000" stroke-width="1" stroke-opacity="0"></use></g></g><g><use xlink:href="#d1FayF0sWK" opacity="1" fill="#ededeb" fill-opacity="1"></use><g><use xlink:href="#d1FayF0sWK" opacity="1" fill-opacity="0" stroke="#000000" stroke-width="1" stroke-opacity="0"></use></g></g><g><use xlink:href="#a1P3Wlk4f9" opacity="1" fill="#ededeb" fill-opacity="1"></use><g><use xlink:href="#a1P3Wlk4f9" opacity="1" fill-opacity="0" stroke="#000000" stroke-width="1" stroke-opacity="0"></use></g></g><g><use xlink:href="#b6DWUXjh8U" opacity="1" fill="#ededeb" fill-opacity="1"></use><g><use xlink:href="#b6DWUXjh8U" opacity="1" fill-opacity="0" stroke="#000000" stroke-width="1" stroke-opacity="0"></use></g></g><g><use xlink:href="#a1eUbpOH26" opacity="1" fill="#ededeb" fill-opacity="1"></use><g><use xlink:href="#a1eUbpOH26" opacity="1" fill-opacity="0" stroke="#000000" stroke-width="1" stroke-opacity="0"></use></g></g><g><use xlink:href="#dbryKToz6" opacity="1" fill="#26b6a6" fill-opacity="1"></use><g><use xlink:href="#dbryKToz6" opacity="1" fill-opacity="0" stroke="#000000" stroke-width="1" stroke-opacity="0"></use></g></g><g><use xlink:href="#gbFNtCiuw" opacity="1" fill="#e66b58" fill-opacity="1"></use><g><use xlink:href="#gbFNtCiuw" opacity="1" fill-opacity="0" stroke="#000000" stroke-width="1" stroke-opacity="0"></use></g></g><g><use xlink:href="#c1ohFJQspj" opacity="1" fill="#e66b58" fill-opacity="1"></use><g><use xlink:href="#c1ohFJQspj" opacity="1" fill-opacity="0" stroke="#000000" stroke-width="1" stroke-opacity="0"></use></g></g><g><use xlink:href="#g5a38qkXRj" opacity="1" fill="#33535f" fill-opacity="1"></use><g><use xlink:href="#g5a38qkXRj" opacity="1" fill-opacity="0" stroke="#000000" stroke-width="1" stroke-opacity="0"></use></g></g><g><use xlink:href="#aKK4NSGtk" opacity="1" fill="#26b6a6" fill-opacity="1"></use><g><use xlink:href="#aKK4NSGtk" opacity="1" fill-opacity="0" stroke="#000000" stroke-width="1" stroke-opacity="0"></use></g></g><g><use xlink:href="#g1dyiSvcQ" opacity="1" fill="#273e47" fill-opacity="1"></use><g><use xlink:href="#g1dyiSvcQ" opacity="1" fill-opacity="0" stroke="#000000" stroke-width="1" stroke-opacity="0"></use></g></g><g><use xlink:href="#b1yZk0qilN" opacity="1" fill="#26b6a6" fill-opacity="1"></use><g><use xlink:href="#b1yZk0qilN" opacity="1" fill-opacity="0" stroke="#000000" stroke-width="1" stroke-opacity="0"></use></g></g><g><use xlink:href="#c1nzRXNUhA" opacity="1" fill="#e66b58" fill-opacity="1"></use><g><use xlink:href="#c1nzRXNUhA" opacity="1" fill-opacity="0" stroke="#000000" stroke-width="1" stroke-opacity="0"></use></g></g><g><use xlink:href="#j1BCJwcPsz" opacity="1" fill="#e66b58" fill-opacity="1"></use><g><use xlink:href="#j1BCJwcPsz" opacity="1" fill-opacity="0" stroke="#000000" stroke-width="1" stroke-opacity="0"></use></g></g><g><use xlink:href="#b1X0LvTJDJ" opacity="1" fill="#26b6a6" fill-opacity="1"></use><g><use xlink:href="#b1X0LvTJDJ" opacity="1" fill-opacity="0" stroke="#000000" stroke-width="1" stroke-opacity="0"></use></g></g><g><use xlink:href="#d8N9Hozzn" opacity="1" fill="#e66b58" fill-opacity="1"></use><g><use xlink:href="#d8N9Hozzn" opacity="1" fill-opacity="0" stroke="#000000" stroke-width="1" stroke-opacity="0"></use></g></g><g><use xlink:href="#cb8KOFtRD" opacity="1" fill="#e66b58" fill-opacity="1"></use><g><use xlink:href="#cb8KOFtRD" opacity="1" fill-opacity="0" stroke="#000000" stroke-width="1" stroke-opacity="0"></use></g></g><g><use xlink:href="#f6pZqmLU6" opacity="1" fill="#e66b58" fill-opacity="1"></use><g><use xlink:href="#f6pZqmLU6" opacity="1" fill-opacity="0" stroke="#000000" stroke-width="1" stroke-opacity="0"></use></g></g><g><use xlink:href="#a4Fer3Q4x" opacity="1" fill="#bc5647" fill-opacity="1"></use><g><use xlink:href="#a4Fer3Q4x" opacity="1" fill-opacity="0" stroke="#000000" stroke-width="1" stroke-opacity="0"></use></g></g><g><use xlink:href="#e1xgWb933c" opacity="1" fill="#ffffff" fill-opacity="1"></use><g><use xlink:href="#e1xgWb933c" opacity="1" fill-opacity="0" stroke="#000000" stroke-width="1" stroke-opacity="0"></use></g></g><g><use xlink:href="#bhHPqWb9P" opacity="1" fill="#e66b58" fill-opacity="1"></use><g><use xlink:href="#bhHPqWb9P" opacity="1" fill-opacity="0" stroke="#000000" stroke-width="1" stroke-opacity="0"></use></g></g><g><use xlink:href="#d22On0CVe7" opacity="1" fill="#e66b58" fill-opacity="1"></use><g><use xlink:href="#d22On0CVe7" opacity="1" fill-opacity="0" stroke="#000000" stroke-width="1" stroke-opacity="0"></use></g></g><g><use xlink:href="#cAkHjPHgR" opacity="1" fill="#e66b58" fill-opacity="1"></use><g><use xlink:href="#cAkHjPHgR" opacity="1" fill-opacity="0" stroke="#000000" stroke-width="1" stroke-opacity="0"></use></g></g><g><use xlink:href="#a1xqDAHXPc" opacity="1" fill="#e66b58" fill-opacity="1"></use><g><use xlink:href="#a1xqDAHXPc" opacity="1" fill-opacity="0" stroke="#000000" stroke-width="1" stroke-opacity="0"></use></g></g><g><use xlink:href="#cQNysdsED" opacity="1" fill="#e66b58" fill-opacity="1"></use><g><use xlink:href="#cQNysdsED" opacity="1" fill-opacity="0" stroke="#000000" stroke-width="1" stroke-opacity="0"></use></g></g><g><use xlink:href="#c2vBnl0v0G" opacity="1" fill="#e66b58" fill-opacity="1"></use><g><use xlink:href="#c2vBnl0v0G" opacity="1" fill-opacity="0" stroke="#000000" stroke-width="1" stroke-opacity="0"></use></g></g><g><use xlink:href="#c1vEQ5A6kU" opacity="1" fill="#e66b58" fill-opacity="1"></use><g><use xlink:href="#c1vEQ5A6kU" opacity="1" fill-opacity="0" stroke="#000000" stroke-width="1" stroke-opacity="0"></use></g></g><g><use xlink:href="#bCpFoC4J2" opacity="1" fill="#e66b58" fill-opacity="1"></use><g><use xlink:href="#bCpFoC4J2" opacity="1" fill-opacity="0" stroke="#000000" stroke-width="1" stroke-opacity="0"></use></g></g><g><use xlink:href="#e2kqK63mN" opacity="1" fill="#fafaf9" fill-opacity="1"></use><g><use xlink:href="#e2kqK63mN" opacity="1" fill-opacity="0" stroke="#000000" stroke-width="1" stroke-opacity="0"></use></g></g><g><use xlink:href="#bP2HZgCYc" opacity="1" fill="#fafaf9" fill-opacity="1"></use><g><use xlink:href="#bP2HZgCYc" opacity="1" fill-opacity="0" stroke="#000000" stroke-width="1" stroke-opacity="0"></use></g></g><g><use xlink:href="#h20ISJZ6vR" opacity="1" fill="#fafaf9" fill-opacity="1"></use><g><use xlink:href="#h20ISJZ6vR" opacity="1" fill-opacity="0" stroke="#000000" stroke-width="1" stroke-opacity="0"></use></g></g><g><use xlink:href="#a4UwAsl06" opacity="1" fill="#fafaf9" fill-opacity="1"></use><g><use xlink:href="#a4UwAsl06" opacity="1" fill-opacity="0" stroke="#000000" stroke-width="1" stroke-opacity="0"></use></g></g><g><use xlink:href="#a3wbYfJCGc" opacity="1" fill="#fafaf9" fill-opacity="1"></use><g><use xlink:href="#a3wbYfJCGc" opacity="1" fill-opacity="0" stroke="#000000" stroke-width="1" stroke-opacity="0"></use></g></g><g><use xlink:href="#b1anjO9XiS" opacity="1" fill="#fafaf9" fill-opacity="1"></use><g><use xlink:href="#b1anjO9XiS" opacity="1" fill-opacity="0" stroke="#000000" stroke-width="1" stroke-opacity="0"></use></g></g><g><use xlink:href="#b66lVwViC" opacity="1" fill="#fafaf9" fill-opacity="1"></use><g><use xlink:href="#b66lVwViC" opacity="1" fill-opacity="0" stroke="#000000" stroke-width="1" stroke-opacity="0"></use></g></g><g><use xlink:href="#a3xArmW0WC" opacity="1" fill="#fafaf9" fill-opacity="1"></use><g><use xlink:href="#a3xArmW0WC" opacity="1" fill-opacity="0" stroke="#000000" stroke-width="1" stroke-opacity="0"></use></g></g><g><use xlink:href="#bBz7cEu3o" opacity="1" fill="#fafaf9" fill-opacity="1"></use><g><use xlink:href="#bBz7cEu3o" opacity="1" fill-opacity="0" stroke="#000000" stroke-width="1" stroke-opacity="0"></use></g></g><g><use xlink:href="#dZhn6twt7" opacity="1" fill="#f6879f" fill-opacity="1"></use><g><use xlink:href="#dZhn6twt7" opacity="1" fill-opacity="0" stroke="#000000" stroke-width="1" stroke-opacity="0"></use></g></g><g><use xlink:href="#a4WLAdxc0" opacity="1" fill="#273e47" fill-opacity="1"></use><g><use xlink:href="#a4WLAdxc0" opacity="1" fill-opacity="0" stroke="#000000" stroke-width="1" stroke-opacity="0"></use></g></g><g><use xlink:href="#bIDjNiXLW" opacity="1" fill="#33535f" fill-opacity="1"></use><g><use xlink:href="#bIDjNiXLW" opacity="1" fill-opacity="0" stroke="#000000" stroke-width="1" stroke-opacity="0"></use></g></g><g><use xlink:href="#bdwqZEaEM" opacity="1" fill="#33535f" fill-opacity="1"></use><g><use xlink:href="#bdwqZEaEM" opacity="1" fill-opacity="0" stroke="#000000" stroke-width="1" stroke-opacity="0"></use></g></g><g><use xlink:href="#b29kJTsnJ1" opacity="1" fill="#273e47" fill-opacity="1"></use><g><use xlink:href="#b29kJTsnJ1" opacity="1" fill-opacity="0" stroke="#000000" stroke-width="1" stroke-opacity="0"></use></g></g><g><use xlink:href="#l3YJd3t2" opacity="1" fill="#273e47" fill-opacity="1"></use><g><use xlink:href="#l3YJd3t2" opacity="1" fill-opacity="0" stroke="#000000" stroke-width="1" stroke-opacity="0"></use></g></g><g><use xlink:href="#a1ZoNfhG7L" opacity="1" fill="#33535f" fill-opacity="1"></use><g><use xlink:href="#a1ZoNfhG7L" opacity="1" fill-opacity="0" stroke="#000000" stroke-width="1" stroke-opacity="0"></use></g></g><g><use xlink:href="#chFD8FnOE" opacity="1" fill="#f6879f" fill-opacity="1"></use><g><use xlink:href="#chFD8FnOE" opacity="1" fill-opacity="0" stroke="#000000" stroke-width="1" stroke-opacity="0"></use></g></g><g><use xlink:href="#j2kfjSR25" opacity="1" fill="#f6879f" fill-opacity="1"></use><g><use xlink:href="#j2kfjSR25" opacity="1" fill-opacity="0" stroke="#000000" stroke-width="1" stroke-opacity="0"></use></g></g><g><use xlink:href="#dSePutEbS" opacity="1" fill="#f47089" fill-opacity="1"></use><g><use xlink:href="#dSePutEbS" opacity="1" fill-opacity="0" stroke="#000000" stroke-width="1" stroke-opacity="0"></use></g></g><g><use xlink:href="#bxhlcuTKu" opacity="1" fill="#33535f" fill-opacity="1"></use><g><use xlink:href="#bxhlcuTKu" opacity="1" fill-opacity="0" stroke="#000000" stroke-width="1" stroke-opacity="0"></use></g></g><g><use xlink:href="#c64ezT0CeI" opacity="1" fill="#273e47" fill-opacity="1"></use><g><use xlink:href="#c64ezT0CeI" opacity="1" fill-opacity="0" stroke="#000000" stroke-width="1" stroke-opacity="0"></use></g></g><g><use xlink:href="#bWs1waHgO" opacity="1" fill="#f6879f" fill-opacity="1"></use><g><use xlink:href="#bWs1waHgO" opacity="1" fill-opacity="0" stroke="#000000" stroke-width="1" stroke-opacity="0"></use></g></g><g><use xlink:href="#b41H35INWM" opacity="1" fill="#e66b58" fill-opacity="1"></use><g><use xlink:href="#b41H35INWM" opacity="1" fill-opacity="0" stroke="#000000" stroke-width="1" stroke-opacity="0"></use></g></g><g><use xlink:href="#g49wLDJk3B" opacity="1" fill="#e66b58" fill-opacity="1"></use><g><use xlink:href="#g49wLDJk3B" opacity="1" fill-opacity="0" stroke="#000000" stroke-width="1" stroke-opacity="0"></use></g></g><g><use xlink:href="#ajMIM7Nfx" opacity="1" fill="#17282f" fill-opacity="1"></use><g><use xlink:href="#ajMIM7Nfx" opacity="1" fill-opacity="0" stroke="#000000" stroke-width="1" stroke-opacity="0"></use></g></g><g><use xlink:href="#ahpWwb3fy" opacity="1" fill="#17282f" fill-opacity="1"></use><g><use xlink:href="#ahpWwb3fy" opacity="1" fill-opacity="0" stroke="#000000" stroke-width="1" stroke-opacity="0"></use></g></g><g><use xlink:href="#a1LsF4vTa" opacity="1" fill="#f6879f" fill-opacity="1"></use><g><use xlink:href="#a1LsF4vTa" opacity="1" fill-opacity="0" stroke="#000000" stroke-width="1" stroke-opacity="0"></use></g></g><g><use xlink:href="#bAaZSnxLX" opacity="1" fill="#17282f" fill-opacity="1"></use><g><use xlink:href="#bAaZSnxLX" opacity="1" fill-opacity="0" stroke="#000000" stroke-width="1" stroke-opacity="0"></use></g></g><g><use xlink:href="#b2DWjd5S9V" opacity="1" fill="#f3647d" fill-opacity="1"></use><g><use xlink:href="#b2DWjd5S9V" opacity="1" fill-opacity="0" stroke="#000000" stroke-width="1" stroke-opacity="0"></use></g></g><g><use xlink:href="#e1kvEQEYwM" opacity="1" fill="#17282f" fill-opacity="1"></use><g><use xlink:href="#e1kvEQEYwM" opacity="1" fill-opacity="0" stroke="#000000" stroke-width="1" stroke-opacity="0"></use></g></g><g><use xlink:href="#a1cYRIilKE" opacity="1" fill="#17282f" fill-opacity="1"></use><g><use xlink:href="#a1cYRIilKE" opacity="1" fill-opacity="0" stroke="#000000" stroke-width="1" stroke-opacity="0"></use></g></g><g><use xlink:href="#ajnPINmcE" opacity="1" fill="#17282f" fill-opacity="1"></use><g><use xlink:href="#ajnPINmcE" opacity="1" fill-opacity="0" stroke="#000000" stroke-width="1" stroke-opacity="0"></use></g></g><g><use xlink:href="#bHa3iueGN" opacity="1" fill="#f3647d" fill-opacity="1"></use><g><use xlink:href="#bHa3iueGN" opacity="1" fill-opacity="0" stroke="#000000" stroke-width="1" stroke-opacity="0"></use></g></g><g><use xlink:href="#hJbBNgnEy" opacity="1" fill="#f3647d" fill-opacity="1"></use><g><use xlink:href="#hJbBNgnEy" opacity="1" fill-opacity="0" stroke="#000000" stroke-width="1" stroke-opacity="0"></use></g></g><g><use xlink:href="#a1TTtEEhYe" opacity="1" fill="#17282f" fill-opacity="1"></use><g><use xlink:href="#a1TTtEEhYe" opacity="1" fill-opacity="0" stroke="#000000" stroke-width="1" stroke-opacity="0"></use></g></g><g><use xlink:href="#f2natSkZ" opacity="1" fill="#17282f" fill-opacity="1"></use><g><use xlink:href="#f2natSkZ" opacity="1" fill-opacity="0" stroke="#000000" stroke-width="1" stroke-opacity="0"></use></g></g><g><use xlink:href="#a62cqmBKza" opacity="1" fill="#17282f" fill-opacity="1"></use><g><use xlink:href="#a62cqmBKza" opacity="1" fill-opacity="0" stroke="#000000" stroke-width="1" stroke-opacity="0"></use></g></g><g><use xlink:href="#iywRcJ5iR" opacity="1" fill="#f6879f" fill-opacity="1"></use><g><use xlink:href="#iywRcJ5iR" opacity="1" fill-opacity="0" stroke="#000000" stroke-width="1" stroke-opacity="0"></use></g></g><g><use xlink:href="#bXq545Ty6" opacity="1" fill="#33535f" fill-opacity="1"></use><g><use xlink:href="#bXq545Ty6" opacity="1" fill-opacity="0" stroke="#000000" stroke-width="1" stroke-opacity="0"></use></g></g><g><use xlink:href="#bNwwuOrKq" opacity="1" fill="#273e47" fill-opacity="1"></use><g><use xlink:href="#bNwwuOrKq" opacity="1" fill-opacity="0" stroke="#000000" stroke-width="1" stroke-opacity="0"></use></g></g><g><use xlink:href="#c7qpp3j5j" opacity="1" fill="#e66b58" fill-opacity="1"></use><g><use xlink:href="#c7qpp3j5j" opacity="1" fill-opacity="0" stroke="#000000" stroke-width="1" stroke-opacity="0"></use></g></g><g><use xlink:href="#bgCV1lP4m" opacity="1" fill="#17282f" fill-opacity="1"></use><g><use xlink:href="#bgCV1lP4m" opacity="1" fill-opacity="0" stroke="#000000" stroke-width="1" stroke-opacity="0"></use></g></g><g><use xlink:href="#bVUPn0Ik2" opacity="1" fill="#17282f" fill-opacity="1"></use><g><use xlink:href="#bVUPn0Ik2" opacity="1" fill-opacity="0" stroke="#000000" stroke-width="1" stroke-opacity="0"></use></g></g><g><use xlink:href="#avHviONik" opacity="1" fill="#17282f" fill-opacity="1"></use><g><use xlink:href="#avHviONik" opacity="1" fill-opacity="0" stroke="#000000" stroke-width="1" stroke-opacity="0"></use></g></g><g><use xlink:href="#amXfXpp73" opacity="1" fill="#17282f" fill-opacity="1"></use><g><use xlink:href="#amXfXpp73" opacity="1" fill-opacity="0" stroke="#000000" stroke-width="1" stroke-opacity="0"></use></g></g><g><use xlink:href="#l9Zk7hxTzY" opacity="1" fill="#17282f" fill-opacity="1"></use><g><use xlink:href="#l9Zk7hxTzY" opacity="1" fill-opacity="0" stroke="#000000" stroke-width="1" stroke-opacity="0"></use></g></g><g><use xlink:href="#a9gbk8aZt" opacity="1" fill="#33535f" fill-opacity="1"></use><g><use xlink:href="#a9gbk8aZt" opacity="1" fill-opacity="0" stroke="#000000" stroke-width="1" stroke-opacity="0"></use></g></g><g><use xlink:href="#amoJi43tZ" opacity="1" fill="#e66b58" fill-opacity="1"></use><g><use xlink:href="#amoJi43tZ" opacity="1" fill-opacity="0" stroke="#000000" stroke-width="1" stroke-opacity="0"></use></g></g><g><use xlink:href="#aguyr3wXP" opacity="1" fill="#9bd8c7" fill-opacity="1"></use><g><use xlink:href="#aguyr3wXP" opacity="1" fill-opacity="0" stroke="#000000" stroke-width="1" stroke-opacity="0"></use></g></g><g><use xlink:href="#avmUj2PD" opacity="1" fill="#f6879f" fill-opacity="1"></use><g><use xlink:href="#avmUj2PD" opacity="1" fill-opacity="0" stroke="#000000" stroke-width="1" stroke-opacity="0"></use></g></g></g></g></svg>